<svg width="28" height="28" viewBox="0 0 28 28" fill="none" xmlns="http://www.w3.org/2000/svg">
<g clip-path="url(#clip0_402_21801)">
<path fill-rule="evenodd" clip-rule="evenodd" d="M4.04189 10.8488C3.72759 11.8431 3.55807 12.9016 3.55807 13.9997C3.55807 15.0979 3.72759 16.1564 4.04189 17.1506C4.05554 17.15 4.06927 17.1497 4.08307 17.1497H8.59466C8.4721 16.1741 8.39974 15.1226 8.39974 13.9997C8.39974 12.8768 8.4721 11.8253 8.59465 10.8497H4.08307C4.06927 10.8497 4.05554 10.8494 4.04189 10.8488ZM4.83992 19.0164H8.90384C9.18488 20.3759 9.55176 21.5433 9.92028 22.5014C10.114 23.0052 10.3083 23.4512 10.4908 23.8372C8.06987 22.9736 6.06125 21.2417 4.83992 19.0164ZM12.6099 23.8824C12.7341 24.106 12.8365 24.2742 12.9068 24.3849C13.266 24.4223 13.6306 24.4414 13.9997 24.4414C14.3689 24.4414 14.7336 24.4222 15.0928 24.3849C15.1631 24.2742 15.2655 24.106 15.3897 23.8824C15.6442 23.4242 15.9897 22.7345 16.3371 21.8313C16.638 21.049 16.9402 20.1069 17.1861 19.0164H10.8135C11.0594 20.1069 11.3616 21.049 11.6625 21.8313C12.0099 22.7345 12.3554 23.4242 12.6099 23.8824ZM19.0958 19.0164C18.8147 20.3759 18.4478 21.5433 18.0793 22.5014C17.8856 23.0052 17.6913 23.4512 17.5088 23.8371C19.9297 22.9735 21.9383 21.2416 23.1596 19.0164H19.0958ZM19.4049 17.1497C19.5275 16.1741 19.5999 15.1226 19.5999 13.9997C19.5999 12.8768 19.5275 11.8253 19.4049 10.8497H23.9164C23.9302 10.8497 23.9439 10.8494 23.9576 10.8488C24.2719 11.8431 24.4414 12.9016 24.4414 13.9997C24.4414 15.0979 24.2719 16.1564 23.9576 17.1506C23.9439 17.15 23.9302 17.1497 23.9164 17.1497H19.4049ZM17.5224 10.8497C17.6539 11.8158 17.7332 12.8676 17.7332 13.9997C17.7332 15.1319 17.6539 16.1836 17.5224 17.1497H10.4772C10.3457 16.1836 10.2664 15.1319 10.2664 13.9997C10.2664 12.8676 10.3456 11.8158 10.4772 10.8497H17.5224ZM19.0958 8.98307H23.1596C21.9383 6.75786 19.9297 5.02597 17.5088 4.16235C17.6913 4.54828 17.8856 4.9943 18.0793 5.49801C18.4478 6.45617 18.8147 7.62354 19.0958 8.98307ZM15.0928 3.6146C15.1631 3.72531 15.2655 3.8935 15.3897 4.11706C15.6442 4.57522 15.9897 5.26494 16.3371 6.16811C16.638 6.95044 16.9402 7.89255 17.1861 8.98307H10.8135C11.0594 7.89255 11.3616 6.95044 11.6625 6.16811C12.0099 5.26494 12.3554 4.57522 12.6099 4.11706C12.7341 3.89349 12.8365 3.72529 12.9068 3.61459C13.266 3.57723 13.6306 3.55807 13.9997 3.55807C14.3689 3.55807 14.7336 3.57723 15.0928 3.6146ZM4.83992 8.98307C6.06125 6.75782 8.06986 5.0259 10.4908 4.1623C10.3083 4.54824 10.114 4.99428 9.92028 5.49801C9.55176 6.45617 9.18487 7.62354 8.90384 8.98307H4.83992ZM1.69141 13.9997C1.69141 7.20203 7.20203 1.69141 13.9997 1.69141C20.7974 1.69141 26.3081 7.20203 26.3081 13.9997C26.3081 20.7974 20.7974 26.3081 13.9997 26.3081C7.20203 26.3081 1.69141 20.7974 1.69141 13.9997Z" fill="#93F0E7"/>
</g>
<defs>
<clipPath id="clip0_402_21801">
<rect width="28" height="28" fill="white"/>
</clipPath>
</defs>
</svg>
