<svg width="368" height="388" viewBox="0 0 368 388" fill="none" xmlns="http://www.w3.org/2000/svg">
<circle cx="174" cy="190" r="166" stroke="#E0F6F4" stroke-width="16"/>
<g filter="url(#filter0_d_2003_1025)">
<mask id="path-2-inside-1_2003_1025" fill="white">
<path d="M174 356.016C174 360.425 177.577 364.019 181.982 363.817C225.226 361.833 266.292 343.782 297.037 313.037C329.668 280.405 348 236.148 348 190C348 143.852 329.668 99.5948 297.037 66.9634C266.292 36.2185 225.226 18.1673 181.982 16.183C177.577 15.9809 174 19.5747 174 23.9842C174 28.3938 177.577 31.9474 181.981 32.17C220.987 34.1409 257.995 50.5049 285.745 78.2549C315.382 107.892 332.032 148.087 332.031 190C332.031 231.913 315.382 272.109 285.745 301.745C257.995 329.495 220.987 345.859 181.981 347.83C177.577 348.053 174 351.606 174 356.016Z"/>
</mask>
<path d="M174 356.016C174 360.425 177.577 364.019 181.982 363.817C225.226 361.833 266.292 343.782 297.037 313.037C329.668 280.405 348 236.148 348 190C348 143.852 329.668 99.5948 297.037 66.9634C266.292 36.2185 225.226 18.1673 181.982 16.183C177.577 15.9809 174 19.5747 174 23.9842C174 28.3938 177.577 31.9474 181.981 32.17C220.987 34.1409 257.995 50.5049 285.745 78.2549C315.382 107.892 332.032 148.087 332.031 190C332.031 231.913 315.382 272.109 285.745 301.745C257.995 329.495 220.987 345.859 181.981 347.83C177.577 348.053 174 351.606 174 356.016Z" stroke="url(#paint0_linear_2003_1025)" stroke-width="64" shape-rendering="crispEdges" mask="url(#path-2-inside-1_2003_1025)"/>
</g>
<defs>
<filter id="filter0_d_2003_1025" x="154" y="0.174805" width="214" height="387.65" filterUnits="userSpaceOnUse" color-interpolation-filters="sRGB">
<feFlood flood-opacity="0" result="BackgroundImageFix"/>
<feColorMatrix in="SourceAlpha" type="matrix" values="0 0 0 0 0 0 0 0 0 0 0 0 0 0 0 0 0 0 127 0" result="hardAlpha"/>
<feOffset dy="4"/>
<feGaussianBlur stdDeviation="10"/>
<feComposite in2="hardAlpha" operator="out"/>
<feColorMatrix type="matrix" values="0 0 0 0 0.11968 0 0 0 0 0.55179 0 0 0 0 0.502872 0 0 0 0.16 0"/>
<feBlend mode="normal" in2="BackgroundImageFix" result="effect1_dropShadow_2003_1025"/>
<feBlend mode="normal" in="SourceGraphic" in2="effect1_dropShadow_2003_1025" result="shape"/>
</filter>
<linearGradient id="paint0_linear_2003_1025" x1="183.965" y1="15.6167" x2="328.454" y2="130.211" gradientUnits="userSpaceOnUse">
<stop stop-color="#9AF4EC"/>
<stop offset="1" stop-color="#2EB1A4"/>
</linearGradient>
</defs>
</svg>
