<svg width="28" height="28" viewBox="0 0 28 28" fill="none" xmlns="http://www.w3.org/2000/svg">
<g clip-path="url(#clip0_402_21888)">
<path fill-rule="evenodd" clip-rule="evenodd" d="M5.75018 22.2492C5.29457 21.7936 5.29457 21.0549 5.75018 20.5993L18.6078 7.74167L8.22506 7.74167C7.58072 7.74167 7.05839 7.21934 7.05839 6.57501C7.05839 5.93067 7.58072 5.40834 8.22506 5.40834L21.4244 5.40834C22.0687 5.40834 22.5911 5.93067 22.591 6.575L22.591 19.7743C22.5911 20.4187 22.0687 20.941 21.4244 20.941C20.7801 20.941 20.2577 20.4187 20.2577 19.7743L20.2577 9.39159L7.4001 22.2492C6.94449 22.7048 6.2058 22.7048 5.75018 22.2492Z" fill="#93F0E7"/>
</g>
<defs>
<clipPath id="clip0_402_21888">
<rect width="28" height="28" fill="white"/>
</clipPath>
</defs>
</svg>
