<svg width="348" height="364" viewBox="0 0 348 364" fill="none" xmlns="http://www.w3.org/2000/svg">
<circle cx="174" cy="190" r="166" stroke="#E0F6F4" stroke-width="16"/>
<g filter="url(#filter0_d_2003_1026)">
<mask id="path-2-inside-1_2003_1026" fill="white">
<path d="M313.178 99.4976C316.875 97.0937 317.938 92.1361 315.367 88.5536C300.947 68.4591 282.389 51.6434 260.909 39.2593C239.43 26.8751 215.579 19.24 190.963 16.8288C186.575 16.399 182.817 19.8029 182.589 24.2066C182.361 28.6102 185.749 32.3442 190.136 32.7944C212.234 35.0625 233.637 41.9679 252.933 53.0932C272.23 64.2185 288.93 79.2815 301.965 97.2692C304.552 100.84 309.481 101.901 313.178 99.4976Z"/>
</mask>
<path d="M313.178 99.4976C316.875 97.0937 317.938 92.1361 315.367 88.5536C300.947 68.4591 282.389 51.6434 260.909 39.2593C239.43 26.8751 215.579 19.24 190.963 16.8288C186.575 16.399 182.817 19.8029 182.589 24.2066C182.361 28.6102 185.749 32.3442 190.136 32.7944C212.234 35.0625 233.637 41.9679 252.933 53.0932C272.23 64.2185 288.93 79.2815 301.965 97.2692C304.552 100.84 309.481 101.901 313.178 99.4976Z" stroke="url(#paint0_linear_2003_1026)" stroke-width="64" shape-rendering="crispEdges" mask="url(#path-2-inside-1_2003_1026)"/>
</g>
<defs>
<filter id="filter0_d_2003_1026" x="162.578" y="0.791992" width="174.201" height="123.999" filterUnits="userSpaceOnUse" color-interpolation-filters="sRGB">
<feFlood flood-opacity="0" result="BackgroundImageFix"/>
<feColorMatrix in="SourceAlpha" type="matrix" values="0 0 0 0 0 0 0 0 0 0 0 0 0 0 0 0 0 0 127 0" result="hardAlpha"/>
<feOffset dy="4"/>
<feGaussianBlur stdDeviation="10"/>
<feComposite in2="hardAlpha" operator="out"/>
<feColorMatrix type="matrix" values="0 0 0 0 0.11968 0 0 0 0 0.55179 0 0 0 0 0.502872 0 0 0 0.16 0"/>
<feBlend mode="normal" in2="BackgroundImageFix" result="effect1_dropShadow_2003_1026"/>
<feBlend mode="normal" in="SourceGraphic" in2="effect1_dropShadow_2003_1026" result="shape"/>
</filter>
<linearGradient id="paint0_linear_2003_1026" x1="183.965" y1="15.6167" x2="328.454" y2="130.211" gradientUnits="userSpaceOnUse">
<stop stop-color="#9AF4EC"/>
<stop offset="1" stop-color="#2EB1A4"/>
</linearGradient>
</defs>
</svg>
