<svg width="28" height="28" viewBox="0 0 28 28" fill="none" xmlns="http://www.w3.org/2000/svg">
<g clip-path="url(#clip0_402_21891)">
<path fill-rule="evenodd" clip-rule="evenodd" d="M22.2498 5.75079C22.7054 6.2064 22.7054 6.9451 22.2498 7.40071L9.3922 20.2583L19.7749 20.2583C20.4193 20.2583 20.9416 20.7807 20.9416 21.425C20.9416 22.0693 20.4193 22.5917 19.7749 22.5917L6.57562 22.5917C5.93129 22.5917 5.40895 22.0693 5.40895 21.425L5.40895 8.22567C5.40895 7.58134 5.93129 7.059 6.57562 7.059C7.21995 7.059 7.74228 7.58133 7.74228 8.22567L7.74229 18.6084L20.5999 5.75079C21.0555 5.29518 21.7942 5.29518 22.2498 5.75079Z" fill="#92EFE7"/>
</g>
<defs>
<clipPath id="clip0_402_21891">
<rect width="28" height="28" fill="white"/>
</clipPath>
</defs>
</svg>
