<svg width="24" height="24" viewBox="0 0 24 24" fill="none" xmlns="http://www.w3.org/2000/svg">
<g clip-path="url(#clip0_402_21705)">
<path d="M9.72769 16.8688C9.95668 16.0183 10.0712 15.5931 10.2504 15.4897C10.405 15.4006 10.5954 15.4006 10.75 15.4897C10.9292 15.5931 11.0437 16.0183 11.2727 16.8688L11.5472 17.8882C11.5908 18.0503 11.6126 18.1313 11.6557 18.1975C11.6938 18.2561 11.7437 18.3061 11.8023 18.3442C11.8686 18.3873 11.9496 18.4091 12.1117 18.4527L13.1311 18.7272C13.9816 18.9562 14.4068 19.0707 14.5102 19.2499C14.5993 19.4045 14.5993 19.5949 14.5102 19.7495C14.4068 19.9287 13.9816 20.0432 13.1311 20.2722L12.1117 20.5467C11.9496 20.5903 11.8686 20.6121 11.8023 20.6552C11.7437 20.6933 11.6938 20.7433 11.6557 20.8019C11.6126 20.8681 11.5908 20.9491 11.5472 21.1112L11.2727 22.1306C11.0437 22.9811 10.9292 23.4063 10.75 23.5097C10.5954 23.5988 10.405 23.5988 10.2504 23.5097C10.0712 23.4063 9.95668 22.9811 9.72769 22.1306L9.45321 21.1112C9.40957 20.9491 9.38776 20.8681 9.3447 20.8019C9.30659 20.7433 9.25663 20.6933 9.19802 20.6552C9.13178 20.6121 9.05075 20.5903 8.88871 20.5467L7.86924 20.2722C7.01879 20.0432 6.59357 19.9287 6.49021 19.7495C6.40105 19.5949 6.40105 19.4045 6.49021 19.2499C6.59357 19.0707 7.01879 18.9562 7.86924 18.7272L8.88871 18.4527C9.05075 18.4091 9.13178 18.3873 9.19802 18.3442C9.25663 18.3061 9.30659 18.2561 9.3447 18.1975C9.38776 18.1313 9.40957 18.0503 9.45321 17.8882L9.72769 16.8688Z" fill="black"/>
<path d="M18.2277 8.61876C18.4567 7.7683 18.5712 7.34308 18.7504 7.23972C18.905 7.15056 19.0954 7.15056 19.25 7.23972C19.4292 7.34308 19.5437 7.7683 19.7727 8.61875L20.2063 10.2291C20.2499 10.3912 20.2717 10.4722 20.3148 10.5384C20.3529 10.597 20.4028 10.647 20.4614 10.6851C20.5277 10.7282 20.6087 10.75 20.7708 10.7936L22.3811 11.2272C23.2316 11.4562 23.6568 11.5707 23.7602 11.7499C23.8493 11.9045 23.8493 12.0949 23.7602 12.2495C23.6568 12.4287 23.2316 12.5432 22.3811 12.7722L20.7708 13.2058C20.6087 13.2494 20.5277 13.2712 20.4614 13.3143C20.4028 13.3524 20.3529 13.4024 20.3148 13.461C20.2717 13.5272 20.2499 13.6082 20.2063 13.7703L19.7727 15.3806C19.5437 16.2311 19.4292 16.6563 19.25 16.7597C19.0954 16.8488 18.905 16.8488 18.7504 16.7597C18.5712 16.6563 18.4567 16.2311 18.2277 15.3806L17.7941 13.7703C17.7505 13.6082 17.7287 13.5272 17.6856 13.461C17.6475 13.4024 17.5975 13.3524 17.5389 13.3143C17.4727 13.2712 17.3917 13.2494 17.2296 13.2058L15.6192 12.7722C14.7688 12.5432 14.3436 12.4287 14.2402 12.2495C14.1511 12.0949 14.1511 11.9045 14.2402 11.7499C14.3436 11.5707 14.7688 11.4562 15.6192 11.2272L17.2296 10.7936C17.3917 10.75 17.4727 10.7282 17.5389 10.6851C17.5975 10.647 17.6475 10.597 17.6856 10.5384C17.7287 10.4722 17.7505 10.3912 17.7941 10.2291L18.2277 8.61876Z" fill="black"/>
<path d="M5.72769 2.36875C5.95668 1.5183 6.07117 1.09308 6.25039 0.989718C6.40499 0.900563 6.59538 0.900563 6.74997 0.989718C6.9292 1.09308 7.04369 1.5183 7.27267 2.36875L7.86536 4.57002C7.90899 4.73207 7.93081 4.81309 7.97387 4.87933C8.01197 4.93794 8.06194 4.98791 8.12055 5.02601C8.18679 5.06907 8.26781 5.09089 8.42986 5.13452L10.6311 5.72721C11.4816 5.95619 11.9068 6.07068 12.0102 6.2499C12.0993 6.4045 12.0993 6.59489 12.0102 6.74948C11.9068 6.92871 11.4816 7.0432 10.6311 7.27218L8.42986 7.86487C8.26781 7.9085 8.18679 7.93032 8.12055 7.97338C8.06194 8.01148 8.01197 8.06145 7.97387 8.12006C7.93081 8.1863 7.90899 8.26732 7.86536 8.42937L7.27267 10.6306C7.04369 11.4811 6.9292 11.9063 6.74997 12.0097C6.59538 12.0988 6.40499 12.0988 6.25039 12.0097C6.07117 11.9063 5.95668 11.4811 5.72769 10.6306L5.13501 8.42937C5.09138 8.26732 5.06956 8.1863 5.0265 8.12006C4.9884 8.06145 4.93843 8.01148 4.87982 7.97338C4.81358 7.93032 4.73256 7.9085 4.57051 7.86487L2.36924 7.27218C1.51879 7.0432 1.09357 6.92871 0.990206 6.74948C0.901051 6.59489 0.901051 6.4045 0.990206 6.2499C1.09357 6.07068 1.51879 5.95619 2.36924 5.72721L4.57051 5.13452C4.73256 5.09089 4.81358 5.06907 4.87982 5.02601C4.93843 4.98791 4.9884 4.93794 5.0265 4.87933C5.06956 4.81309 5.09138 4.73207 5.13501 4.57002L5.72769 2.36875Z" fill="black"/>
</g>
<defs>
<clipPath id="clip0_402_21705">
<rect width="24" height="24" fill="white"/>
</clipPath>
</defs>
</svg>
