<svg width="40" height="40" viewBox="0 0 40 40" fill="none" xmlns="http://www.w3.org/2000/svg">
<g clip-path="url(#clip0_234_23483)">
<path fill-rule="evenodd" clip-rule="evenodd" d="M5 4.16667C5 3.24619 5.74619 2.5 6.66667 2.5H33.3333C34.2538 2.5 35 3.24619 35 4.16667C35 5.08714 34.2538 5.83333 33.3333 5.83333H31.6667V12.5C31.6667 15.1913 30.0484 17.6187 27.5641 18.6538L24.3333 20L27.5641 21.3462C30.0484 22.3813 31.6667 24.8087 31.6667 27.5V34.1667H33.3333C34.2538 34.1667 35 34.9129 35 35.8333C35 36.7538 34.2538 37.5 33.3333 37.5H6.66667C5.74619 37.5 5 36.7538 5 35.8333C5 34.9129 5.74619 34.1667 6.66667 34.1667H8.33333V27.5C8.33333 24.8087 9.95158 22.3813 12.4359 21.3462L15.6667 20L12.4359 18.6538C9.95158 17.6187 8.33333 15.1913 8.33333 12.5V5.83333H6.66667C5.74619 5.83333 5 5.08714 5 4.16667ZM11.6667 34.1667H28.3333V27.5C28.3333 26.1543 27.5242 24.9406 26.2821 24.4231L20 21.8056L13.7179 24.4231C12.4758 24.9406 11.6667 26.1543 11.6667 27.5V34.1667ZM11.6667 5.83333H28.3333V12.5C28.3333 13.8457 27.5242 15.0594 26.2821 15.5769L20 18.1944L13.7179 15.5769C12.4758 15.0594 11.6667 13.8457 11.6667 12.5V5.83333Z" fill="white"/>
</g>
<defs>
<clipPath id="clip0_234_23483">
<rect width="40" height="40" fill="white"/>
</clipPath>
</defs>
</svg>
