<svg width="40" height="40" viewBox="0 0 40 40" fill="none" xmlns="http://www.w3.org/2000/svg">
<g clip-path="url(#clip0_234_23502)">
<path fill-rule="evenodd" clip-rule="evenodd" d="M20.0196 5.83344C21.3219 5.83344 21.7014 5.84415 22.0404 5.92554C22.3805 6.00719 22.7057 6.14188 23.0039 6.32464C23.3012 6.5068 23.5771 6.76758 24.498 7.68843L29.8117 13.0021C30.7325 13.923 30.9933 14.1989 31.1755 14.4962C31.3582 14.7944 31.4929 15.1196 31.5746 15.4597C31.656 15.7987 31.6667 16.1782 31.6667 17.4805V27.8334C31.6667 29.2611 31.6654 30.2316 31.6041 30.9817C31.5444 31.7124 31.4362 32.0861 31.3034 32.3467C30.9838 32.9739 30.4738 33.4839 29.8466 33.8035C29.586 33.9363 29.2123 34.0445 28.4816 34.1042C27.7315 34.1655 26.761 34.1668 25.3333 34.1668H14.6667C13.239 34.1668 12.2685 34.1655 11.5184 34.1042C10.7877 34.0445 10.414 33.9363 10.1534 33.8035C9.52616 33.4839 9.01623 32.9739 8.69665 32.3467C8.56383 32.0861 8.45562 31.7124 8.39592 30.9817C8.33463 30.2316 8.33334 29.2611 8.33334 27.8334V12.1668C8.33334 10.7391 8.33463 9.76865 8.39592 9.0185C8.45562 8.28781 8.56383 7.91414 8.69665 7.65347C9.01623 7.02626 9.52616 6.51633 10.1534 6.19675C10.414 6.06393 10.7877 5.95572 11.5184 5.89602C12.2685 5.83473 13.239 5.83344 14.6667 5.83344H20.0196ZM22.8186 2.68431C22.0474 2.49917 21.2478 2.49955 20.1894 2.50005L20.0196 2.50011H14.6667L14.5978 2.5001C13.2562 2.50008 12.149 2.50007 11.247 2.57376C10.3101 2.6503 9.44896 2.81458 8.64007 3.22673C7.38565 3.86588 6.36578 4.88575 5.72663 6.14017C5.31447 6.94906 5.1502 7.81023 5.07366 8.74706C4.99996 9.64905 4.99998 10.7563 5 12.0979V12.0979V12.1668V27.8334V27.9023V27.9023C4.99998 29.2439 4.99996 30.3512 5.07366 31.2531C5.1502 32.19 5.31447 33.0512 5.72663 33.86C6.36578 35.1145 7.38565 36.1343 8.64007 36.7735C9.44896 37.1856 10.3101 37.3499 11.247 37.4265C12.1489 37.5001 13.2562 37.5001 14.5978 37.5001H14.6667H25.3333H25.4022C26.7438 37.5001 27.8511 37.5001 28.753 37.4265C29.6899 37.3499 30.551 37.1856 31.3599 36.7735C32.6144 36.1343 33.6342 35.1145 34.2734 33.86C34.6855 33.0512 34.8498 32.19 34.9263 31.2531C35 30.3512 35 29.2439 35 27.9023V27.8334V17.4805L35 17.3107C35.0006 16.2524 35.0009 15.4527 34.8158 14.6815C34.6525 14.0013 34.3831 13.351 34.0176 12.7545C33.6032 12.0783 33.0375 11.5131 32.2888 10.7652L32.1687 10.6451L26.855 5.33141L26.735 5.2113C25.987 4.46259 25.4218 3.89688 24.7456 3.4825C24.1491 3.11698 23.4988 2.84762 22.8186 2.68431ZM13.3333 20.0001C12.4129 20.0001 11.6667 20.7463 11.6667 21.6668C11.6667 22.5872 12.4129 23.3334 13.3333 23.3334H23.3333C24.2538 23.3334 25 22.5872 25 21.6668C25 20.7463 24.2538 20.0001 23.3333 20.0001H13.3333ZM13.3333 26.6668C12.4129 26.6668 11.6667 27.413 11.6667 28.3334C11.6667 29.2539 12.4129 30.0001 13.3333 30.0001H26.6667C27.5871 30.0001 28.3333 29.2539 28.3333 28.3334C28.3333 27.413 27.5871 26.6668 26.6667 26.6668H13.3333Z" fill="white"/>
</g>
<defs>
<clipPath id="clip0_234_23502">
<rect width="40" height="40" fill="white"/>
</clipPath>
</defs>
</svg>
