<svg width="40" height="40" viewBox="0 0 40 40" fill="none" xmlns="http://www.w3.org/2000/svg">
<g clip-path="url(#clip0_234_23489)">
<path fill-rule="evenodd" clip-rule="evenodd" d="M1.66675 5.00016C1.66675 4.07969 2.41294 3.3335 3.33341 3.3335H36.6667C37.5872 3.3335 38.3334 4.07969 38.3334 5.00016C38.3334 5.92064 37.5872 6.66683 36.6667 6.66683H35.0001V25.0002H36.6667C37.5872 25.0002 38.3334 25.7464 38.3334 26.6668C38.3334 27.5873 37.5872 28.3335 36.6667 28.3335H21.6667V35.0002H26.6667C27.5872 35.0002 28.3334 35.7464 28.3334 36.6668C28.3334 37.5873 27.5872 38.3335 26.6667 38.3335H13.3334C12.4129 38.3335 11.6667 37.5873 11.6667 36.6668C11.6667 35.7464 12.4129 35.0002 13.3334 35.0002H18.3334V28.3335H3.33341C2.41294 28.3335 1.66675 27.5873 1.66675 26.6668C1.66675 25.7464 2.41294 25.0002 3.33341 25.0002H5.00008V6.66683H3.33341C2.41294 6.66683 1.66675 5.92064 1.66675 5.00016ZM8.33341 6.66683V25.0002H31.6667V6.66683H8.33341Z" fill="white"/>
</g>
<defs>
<clipPath id="clip0_234_23489">
<rect width="40" height="40" fill="white"/>
</clipPath>
</defs>
</svg>
