<svg width="40" height="40" viewBox="0 0 40 40" fill="none" xmlns="http://www.w3.org/2000/svg">
<g clip-path="url(#clip0_234_23496)">
<path fill-rule="evenodd" clip-rule="evenodd" d="M12.0978 5H27.9022H27.9022C29.2438 4.99998 30.3511 4.99996 31.253 5.07366C32.1899 5.1502 33.051 5.31447 33.8599 5.72663C35.1143 6.36578 36.1342 7.38565 36.7734 8.64007C37.1855 9.44896 37.3498 10.3101 37.4263 11.247C37.5 12.1489 37.5 13.2562 37.5 14.5978V25.4022C37.5 26.7438 37.5 27.8511 37.4263 28.753C37.3498 29.6899 37.1855 30.551 36.7734 31.3599C36.1342 32.6144 35.1143 33.6342 33.8599 34.2734C33.051 34.6855 32.1899 34.8498 31.253 34.9263C30.3511 35 29.2438 35 27.9022 35H12.0978C10.7562 35 9.64894 35 8.74696 34.9263C7.81013 34.8498 6.94896 34.6855 6.14007 34.2734C4.88565 33.6342 3.86578 32.6144 3.22663 31.3599C2.81447 30.551 2.6502 29.6899 2.57366 28.753C2.49996 27.8511 2.49998 26.7438 2.5 25.4022V25.4022V14.5978V14.5978C2.49998 13.2562 2.49996 12.1489 2.57366 11.247C2.6502 10.3101 2.81447 9.44896 3.22663 8.64007C3.86578 7.38565 4.88565 6.36578 6.14007 5.72663C6.94896 5.31447 7.81013 5.1502 8.74696 5.07366C9.64895 4.99996 10.7562 4.99998 12.0978 5H12.0978ZM9.0184 8.39592C8.28771 8.45562 7.91403 8.56383 7.65337 8.69665C7.02616 9.01622 6.51622 9.52616 6.19665 10.1534C6.06383 10.414 5.95562 10.7877 5.89592 11.5184C5.85594 12.0077 5.84149 12.5908 5.83627 13.3333H34.1637C34.1585 12.5908 34.1441 12.0077 34.1041 11.5184C34.0444 10.7877 33.9362 10.414 33.8034 10.1534C33.4838 9.52616 32.9738 9.01622 32.3466 8.69665C32.086 8.56383 31.7123 8.45562 30.9816 8.39592C30.2315 8.33463 29.261 8.33334 27.8333 8.33334H12.1667C10.739 8.33334 9.76855 8.33463 9.0184 8.39592ZM34.1667 16.6667H5.83334V25.3333C5.83334 26.761 5.83463 27.7315 5.89592 28.4816C5.95562 29.2123 6.06383 29.586 6.19665 29.8466C6.51622 30.4738 7.02616 30.9838 7.65337 31.3034C7.91403 31.4362 8.28771 31.5444 9.0184 31.6041C9.76855 31.6654 10.739 31.6667 12.1667 31.6667H27.8333C29.261 31.6667 30.2315 31.6654 30.9816 31.6041C31.7123 31.5444 32.086 31.4362 32.3466 31.3034C32.9738 30.9838 33.4838 30.4738 33.8034 29.8466C33.9362 29.586 34.0444 29.2123 34.1041 28.4816C34.1654 27.7315 34.1667 26.761 34.1667 25.3333V16.6667ZM22.5 21.6667C22.5 22.5871 21.7538 23.3333 20.8333 23.3333H10.8333C9.91286 23.3333 9.16667 22.5871 9.16667 21.6667C9.16667 20.7462 9.91286 20 10.8333 20H20.8333C21.7538 20 22.5 20.7462 22.5 21.6667Z" fill="white"/>
</g>
<defs>
<clipPath id="clip0_234_23496">
<rect width="40" height="40" fill="white"/>
</clipPath>
</defs>
</svg>
