<svg width="20" height="20" viewBox="0 0 20 20" fill="none" xmlns="http://www.w3.org/2000/svg">
<g clip-path="url(#clip0_397_11153)">
<path fill-rule="evenodd" clip-rule="evenodd" d="M13.9511 2.5H6.04892H6.0489C5.3781 2.49999 4.82447 2.49998 4.37348 2.53683C3.90507 2.5751 3.47448 2.65724 3.07003 2.86331C2.44283 3.18289 1.93289 3.69283 1.61331 4.32003C1.40724 4.72448 1.3251 5.15507 1.28683 5.62348C1.24998 6.07447 1.24999 6.6281 1.25 7.29891V7.29892V12.7011V12.7011C1.24999 13.3719 1.24998 13.9255 1.28683 14.3765C1.3251 14.8449 1.40724 15.2755 1.61331 15.68C1.93289 16.3072 2.44283 16.8171 3.07003 17.1367C3.47448 17.3428 3.90507 17.4249 4.37348 17.4632C4.82447 17.5 5.3781 17.5 6.0489 17.5H13.9511C14.6219 17.5 15.1755 17.5 15.6265 17.4632C16.0949 17.4249 16.5255 17.3428 16.93 17.1367C17.5572 16.8171 18.0671 16.3072 18.3867 15.68C18.5928 15.2755 18.6749 14.8449 18.7132 14.3765C18.75 13.9255 18.75 13.3719 18.75 12.7011V7.2989C18.75 6.6281 18.75 6.07447 18.7132 5.62348C18.6749 5.15507 18.5928 4.72448 18.3867 4.32003C18.0671 3.69283 17.5572 3.18289 16.93 2.86331C16.5255 2.65724 16.0949 2.5751 15.6265 2.53683C15.1755 2.49998 14.6219 2.49999 13.9511 2.5H13.9511ZM4.00269 4.2797C4.12145 4.24489 4.28029 4.21666 4.5092 4.19796C4.88427 4.16732 5.36952 4.16667 6.08333 4.16667H13.9167C14.6305 4.16667 15.1157 4.16732 15.4908 4.19796C15.7197 4.21666 15.8785 4.24489 15.9973 4.2797L10 8.94427L4.00269 4.2797ZM2.96562 5.58452C2.95905 5.6378 2.95314 5.69581 2.94796 5.7592C2.91732 6.13427 2.91667 6.61952 2.91667 7.33333V12.6667C2.91667 13.3805 2.91732 13.8657 2.94796 14.2408C2.97781 14.6061 3.03192 14.793 3.09832 14.9233C3.25811 15.2369 3.51308 15.4919 3.82668 15.6517C3.95702 15.7181 4.14385 15.7722 4.5092 15.802C4.88427 15.8327 5.36952 15.8333 6.08333 15.8333H13.9167C14.6305 15.8333 15.1157 15.8327 15.4908 15.802C15.8561 15.7722 16.043 15.7181 16.1733 15.6517C16.4869 15.4919 16.7419 15.2369 16.9017 14.9233C16.9681 14.793 17.0222 14.6061 17.052 14.2408C17.0827 13.8657 17.0833 13.3805 17.0833 12.6667V7.33333C17.0833 6.61952 17.0827 6.13427 17.052 5.7592C17.0469 5.69581 17.041 5.6378 17.0344 5.58453L10.5116 10.6578C10.2107 10.8918 9.78931 10.8918 9.48838 10.6578L2.96562 5.58452Z" fill="white"/>
</g>
<defs>
<clipPath id="clip0_397_11153">
<rect width="20" height="20" fill="white"/>
</clipPath>
</defs>
</svg>
