<svg width="20" height="20" viewBox="0 0 20 20" fill="none" xmlns="http://www.w3.org/2000/svg">
<path fill-rule="evenodd" clip-rule="evenodd" d="M13.0335 17.1614C14.5877 17.2528 15.8421 16.5352 16.9253 15.4521C17.2507 15.1267 17.2507 14.599 16.9253 14.2736L14.9918 12.3401C14.5951 11.9435 13.9521 11.9435 13.5554 12.3401C12.7289 13.1666 11.3745 13.6613 10.1385 12.9641C9.60583 12.6636 8.99194 12.2328 8.38105 11.6219C7.77015 11.011 7.33936 10.3972 7.0389 9.86452C6.34165 8.62844 6.83638 7.27405 7.66286 6.44757C8.05951 6.05093 8.05951 5.40785 7.66286 5.0112L5.7294 3.07774C5.40396 2.7523 4.87632 2.7523 4.55089 3.07774C3.46775 4.16087 2.7502 5.41533 2.84162 6.96945C2.93493 8.55571 3.88066 10.6571 6.61328 13.3897C9.34591 16.1223 11.4473 17.0681 13.0335 17.1614ZM12.9357 18.8252C10.7654 18.6975 8.30007 17.4335 5.43477 14.5682C2.56947 11.7029 1.30549 9.23757 1.17783 7.06732C1.04827 4.86494 2.09849 3.17311 3.37237 1.89923C4.34869 0.922914 5.9316 0.922914 6.90791 1.89923L8.84137 3.83269C9.88889 4.88021 9.88889 6.57857 8.84137 7.62608C8.35641 8.11105 8.27659 8.66637 8.49055 9.04567C8.72517 9.46162 9.06715 9.95103 9.55956 10.4434C10.052 10.9358 10.5414 11.2778 10.9573 11.5124C11.3366 11.7264 11.8919 11.6466 12.3769 11.1616C13.4244 10.1141 15.1228 10.1141 16.1703 11.1616L18.1038 13.0951C19.0801 14.0714 19.0801 15.6543 18.1038 16.6306C16.8299 17.9045 15.1381 18.9547 12.9357 18.8252Z" fill="white"/>
</svg>
