<svg width="160" height="62" viewBox="0 0 160 62" fill="none" xmlns="http://www.w3.org/2000/svg">
<path d="M47.1719 47C45.4919 47 44.6519 46.16 44.6519 44.48V8.84C44.6519 7.16 45.4919 6.32 47.1719 6.32H62.8319C66.0119 6.32 68.4519 7.16 70.1519 8.84C71.8719 10.52 72.7319 12.92 72.7319 16.04V17.66C72.7319 20.36 71.8819 22.45 70.1819 23.93C73.3619 25.71 74.9519 28.96 74.9519 33.68V35.72C74.9519 39.4 73.9719 42.2 72.0119 44.12C70.0719 46.04 67.2719 47 63.6119 47H47.1719ZM49.6919 41.96H63.6119C65.8719 41.96 67.4819 41.48 68.4419 40.52C69.4219 39.54 69.9119 37.94 69.9119 35.72V33.68C69.9119 31.46 69.4419 29.88 68.5019 28.94C67.5619 27.98 65.9319 27.5 63.6119 27.5H49.6919V41.96ZM49.6919 22.46H63.9119C65.3719 22.46 66.3619 22.01 66.8819 21.11C67.4219 20.21 67.6919 19.06 67.6919 17.66V16.04C67.6919 14.3 67.3319 13.09 66.6119 12.41C65.8919 11.71 64.6319 11.36 62.8319 11.36H49.6919V22.46ZM92.793 47C89.373 47 86.703 46.31 84.783 44.93C82.883 43.55 81.693 41.42 81.213 38.54C81.133 37.66 81.313 37 81.753 36.56C82.193 36.12 82.833 35.9 83.673 35.9C84.513 35.9 85.123 36.1 85.503 36.5C85.903 36.9 86.173 37.52 86.313 38.36C86.613 39.74 87.253 40.69 88.233 41.21C89.233 41.71 90.753 41.96 92.793 41.96H101.433C104.013 41.96 105.763 41.5 106.683 40.58C107.623 39.64 108.093 37.9 108.093 35.36C108.093 32.78 107.613 31.02 106.653 30.08C105.693 29.12 103.953 28.64 101.433 28.64H93.993C90.213 28.64 87.403 27.72 85.563 25.88C83.743 24.02 82.833 21.2 82.833 17.42C82.833 13.66 83.733 10.87 85.533 9.05C87.353 7.23 90.153 6.32 93.933 6.32H101.073C104.253 6.32 106.743 6.97 108.543 8.27C110.363 9.57 111.513 11.56 111.993 14.24C112.113 15.1 111.953 15.76 111.513 16.22C111.073 16.66 110.413 16.88 109.533 16.88C108.733 16.88 108.133 16.67 107.733 16.25C107.333 15.83 107.073 15.22 106.953 14.42C106.633 13.24 106.023 12.44 105.123 12.02C104.223 11.58 102.873 11.36 101.073 11.36H93.933C91.533 11.36 89.923 11.79 89.103 12.65C88.283 13.49 87.873 15.08 87.873 17.42C87.873 19.78 88.293 21.4 89.133 22.28C89.973 23.16 91.593 23.6 93.993 23.6H101.433C105.373 23.6 108.303 24.56 110.223 26.48C112.163 28.4 113.133 31.36 113.133 35.36C113.133 39.34 112.173 42.28 110.253 44.18C108.333 46.06 105.393 47 101.433 47H92.793ZM124.286 47C122.606 47 121.766 46.16 121.766 44.48V8.84C121.766 7.16 122.606 6.32 124.286 6.32C125.966 6.32 126.806 7.16 126.806 8.84V41.96H143.426C145.106 41.96 145.946 42.8 145.946 44.48C145.946 46.16 145.106 47 143.426 47H124.286Z" fill="white"/>
<path d="M45.3752 60C45.1286 60 45.0052 59.8767 45.0052 59.63V53.7C45.0052 53.4533 45.1286 53.33 45.3752 53.33H47.9852C48.5019 53.33 48.8969 53.465 49.1702 53.735C49.4436 54.005 49.5802 54.3933 49.5802 54.9V55.17C49.5802 55.6433 49.4302 55.9983 49.1302 56.235C49.6769 56.515 49.9502 57.05 49.9502 57.84V58.17C49.9502 58.77 49.7936 59.225 49.4802 59.535C49.1669 59.845 48.7119 60 48.1152 60H45.3752ZM45.7402 59.265H48.1152C48.5052 59.265 48.7852 59.18 48.9552 59.01C49.1286 58.8367 49.2152 58.5567 49.2152 58.17V57.84C49.2152 57.4533 49.1319 57.1767 48.9652 57.01C48.7986 56.84 48.5152 56.755 48.1152 56.755H45.7402V59.265ZM45.7402 56.02H48.1302C48.3936 56.02 48.5786 55.945 48.6852 55.795C48.7919 55.6417 48.8452 55.4333 48.8452 55.17V54.9C48.8452 54.5967 48.7802 54.3817 48.6502 54.255C48.5202 54.1283 48.2986 54.065 47.9852 54.065H45.7402V56.02ZM55.628 55.045C55.8746 55.045 55.998 55.1667 55.998 55.41V59.63C55.998 59.8767 55.8746 60 55.628 60C55.3846 60 55.263 59.8767 55.263 59.63V59.365C54.9196 59.7883 54.3813 60 53.648 60H53.368C52.718 60 52.238 59.845 51.928 59.535C51.618 59.2217 51.463 58.74 51.463 58.09V55.41C51.463 55.1667 51.5846 55.045 51.828 55.045C52.0746 55.045 52.198 55.1667 52.198 55.41V58.09C52.198 58.54 52.2813 58.8483 52.448 59.015C52.618 59.1817 52.9246 59.265 53.368 59.265H53.648C54.088 59.265 54.4563 59.2067 54.753 59.09C55.0496 58.97 55.2196 58.7883 55.263 58.545V55.41C55.263 55.1667 55.3846 55.045 55.628 55.045ZM58.2383 54.195C57.9516 54.195 57.8083 54.0483 57.8083 53.755V53.485C57.8083 53.1983 57.9516 53.055 58.2383 53.055H58.5083C58.785 53.055 58.9233 53.1983 58.9233 53.485V53.755C58.9233 54.0483 58.785 54.195 58.5083 54.195H58.2383ZM58.3733 60C58.1266 60 58.0033 59.8767 58.0033 59.63V55.41C58.0033 55.1667 58.1266 55.045 58.3733 55.045C58.6166 55.045 58.7383 55.1667 58.7383 55.41V59.63C58.7383 59.8767 58.6166 60 58.3733 60ZM62.2124 60C61.7158 60 61.3474 59.88 61.1074 59.64C60.8674 59.3967 60.7474 59.0267 60.7474 58.53V53.36C60.7474 53.1167 60.8708 52.995 61.1174 52.995C61.3608 52.995 61.4824 53.1167 61.4824 53.36V58.53C61.4824 58.82 61.5308 59.015 61.6274 59.115C61.7274 59.215 61.9224 59.265 62.2124 59.265C62.4624 59.265 62.5874 59.3867 62.5874 59.63C62.5941 59.8767 62.4691 60 62.2124 60ZM65.5188 60C64.8688 60 64.3872 59.845 64.0738 59.535C63.7638 59.2217 63.6088 58.74 63.6088 58.09V56.95C63.6088 56.3 63.7638 55.82 64.0738 55.51C64.3872 55.2 64.8688 55.045 65.5188 55.045H67.5088V53.36C67.5088 53.1167 67.6322 52.995 67.8788 52.995C68.1222 52.995 68.2438 53.1167 68.2438 53.36V59.63C68.2438 59.8767 68.1222 60 67.8788 60C67.6322 60 67.5088 59.8767 67.5088 59.63V59.44C67.3555 59.6233 67.1488 59.7633 66.8888 59.86C66.6288 59.9533 66.2988 60 65.8988 60H65.5188ZM65.5188 59.265H65.8988C66.3655 59.265 66.7505 59.2 67.0538 59.07C67.3572 58.94 67.5088 58.7417 67.5088 58.475V55.78H65.5188C65.0688 55.78 64.7605 55.865 64.5938 56.035C64.4272 56.2017 64.3438 56.5067 64.3438 56.95V58.09C64.3438 58.54 64.4272 58.8483 64.5938 59.015C64.7638 59.1817 65.0722 59.265 65.5188 59.265ZM70.3965 54.195C70.1098 54.195 69.9665 54.0483 69.9665 53.755V53.485C69.9665 53.1983 70.1098 53.055 70.3965 53.055H70.6665C70.9432 53.055 71.0815 53.1983 71.0815 53.485V53.755C71.0815 54.0483 70.9432 54.195 70.6665 54.195H70.3965ZM70.5315 60C70.2848 60 70.1615 59.8767 70.1615 59.63V55.41C70.1615 55.1667 70.2848 55.045 70.5315 55.045C70.7748 55.045 70.8965 55.1667 70.8965 55.41V59.63C70.8965 59.8767 70.7748 60 70.5315 60ZM73.2756 60C73.029 60 72.9056 59.8767 72.9056 59.63V55.41C72.9056 55.1667 73.029 55.045 73.2756 55.045C73.519 55.045 73.6406 55.1667 73.6406 55.41V55.68C73.9806 55.2567 74.519 55.045 75.2556 55.045H75.5356C76.1856 55.045 76.6656 55.2 76.9756 55.51C77.2856 55.82 77.4406 56.3 77.4406 56.95V59.63C77.4406 59.8767 77.319 60 77.0756 60C76.829 60 76.7056 59.8767 76.7056 59.63V56.95C76.7056 56.5 76.6206 56.1933 76.4506 56.03C76.284 55.8633 75.979 55.78 75.5356 55.78H75.2556C74.8156 55.78 74.4473 55.8383 74.1506 55.955C73.854 56.0683 73.684 56.2483 73.6406 56.495V59.63C73.6406 59.8767 73.519 60 73.2756 60ZM80.5359 62C80.1359 62 79.8243 61.9183 79.6009 61.755C79.3776 61.5917 79.2376 61.3417 79.1809 61.005C79.1609 60.8817 79.1826 60.785 79.2459 60.715C79.3126 60.645 79.4093 60.61 79.5359 60.61C79.6493 60.61 79.7326 60.64 79.7859 60.7C79.8393 60.76 79.8826 60.85 79.9159 60.97C79.9493 61.0833 80.0126 61.16 80.1059 61.2C80.2026 61.2433 80.3459 61.265 80.5359 61.265H82.3959C82.6593 61.265 82.8326 61.22 82.9159 61.13C83.0026 61.0433 83.0459 60.87 83.0459 60.61V59.36C82.8759 59.5667 82.6559 59.725 82.3859 59.835C82.1159 59.945 81.7993 60 81.4359 60H81.0559C80.4059 60 79.9243 59.845 79.6109 59.535C79.3009 59.225 79.1459 58.7467 79.1459 58.1V56.95C79.1459 56.2933 79.2993 55.8117 79.6059 55.505C79.9159 55.1983 80.3993 55.045 81.0559 55.045H81.8759C82.1426 55.045 82.3726 55.0833 82.5659 55.16C82.7593 55.2333 82.9193 55.3483 83.0459 55.505V55.41C83.0459 55.1667 83.1693 55.045 83.4159 55.045C83.6593 55.045 83.7809 55.1667 83.7809 55.41V60.61C83.7809 61.0833 83.6676 61.4333 83.4409 61.66C83.2176 61.8867 82.8693 62 82.3959 62H80.5359ZM81.0559 59.265H81.4359C81.9026 59.265 82.2876 59.2017 82.5909 59.075C82.8943 58.945 83.0459 58.745 83.0459 58.475V56.585C83.0459 56.2783 82.9459 56.0683 82.7459 55.955C82.5459 55.8383 82.2559 55.78 81.8759 55.78H81.0559C80.6093 55.78 80.3009 55.8617 80.1309 56.025C79.9643 56.1883 79.8809 56.4967 79.8809 56.95V58.1C79.8809 58.54 79.9643 58.845 80.1309 59.015C80.2976 59.1817 80.6059 59.265 81.0559 59.265ZM90.3083 59.995C89.7316 59.995 89.2883 59.875 88.9783 59.635C88.6716 59.3917 88.4883 59.015 88.4283 58.505C88.4183 58.3817 88.445 58.2883 88.5083 58.225C88.575 58.1583 88.6683 58.125 88.7883 58.125C88.9083 58.125 88.9966 58.155 89.0533 58.215C89.1133 58.275 89.1516 58.365 89.1683 58.485C89.2083 58.7783 89.3133 58.9817 89.4833 59.095C89.6566 59.205 89.9316 59.26 90.3083 59.26H91.7483C92.195 59.26 92.5 59.1783 92.6633 59.015C92.83 58.8483 92.9133 58.5467 92.9133 58.11C92.9133 57.6667 92.8283 57.3617 92.6583 57.195C92.4916 57.025 92.1883 56.94 91.7483 56.94H90.4683C89.8516 56.94 89.395 56.7917 89.0983 56.495C88.805 56.1983 88.6583 55.7433 88.6583 55.13C88.6583 54.5167 88.8033 54.0633 89.0933 53.77C89.3866 53.4767 89.8416 53.33 90.4583 53.33H91.7183C92.2583 53.33 92.6733 53.445 92.9633 53.675C93.2566 53.9017 93.4333 54.2533 93.4933 54.73C93.5066 54.8533 93.48 54.9483 93.4133 55.015C93.35 55.0783 93.2566 55.11 93.1333 55.11C93.0166 55.11 92.9283 55.08 92.8683 55.02C92.8083 54.9567 92.7716 54.8667 92.7583 54.75C92.7183 54.4933 92.6183 54.315 92.4583 54.215C92.3016 54.115 92.055 54.065 91.7183 54.065H90.4583C90.045 54.065 89.7633 54.1417 89.6133 54.295C89.4666 54.445 89.3933 54.7233 89.3933 55.13C89.3933 55.5367 89.4683 55.8183 89.6183 55.975C89.7716 56.1283 90.055 56.205 90.4683 56.205H91.7483C92.395 56.205 92.8733 56.36 93.1833 56.67C93.4933 56.98 93.6483 57.46 93.6483 58.11C93.6483 58.7567 93.4933 59.2333 93.1833 59.54C92.8733 59.8433 92.395 59.995 91.7483 59.995H90.3083ZM95.9845 57.82V58.1C95.9845 58.5433 96.0678 58.8483 96.2345 59.015C96.4011 59.1817 96.7095 59.265 97.1595 59.265H97.9795C98.3461 59.265 98.6145 59.2267 98.7845 59.15C98.9578 59.07 99.0695 58.9317 99.1195 58.735C99.1461 58.625 99.1878 58.54 99.2445 58.48C99.3045 58.42 99.3928 58.39 99.5095 58.39C99.6328 58.39 99.7261 58.4233 99.7895 58.49C99.8528 58.5533 99.8745 58.6467 99.8545 58.77C99.7911 59.1867 99.6028 59.4967 99.2895 59.7C98.9795 59.9 98.5428 60 97.9795 60H97.1595C96.5095 60 96.0278 59.845 95.7145 59.535C95.4045 59.225 95.2495 58.7467 95.2495 58.1V56.95C95.2495 56.29 95.4045 55.8067 95.7145 55.5C96.0278 55.19 96.5095 55.0383 97.1595 55.045H97.9795C98.6295 55.045 99.1095 55.2 99.4195 55.51C99.7295 55.8167 99.8845 56.2967 99.8845 56.95V57.45C99.8845 57.6967 99.7628 57.82 99.5195 57.82H95.9845ZM97.1595 55.78C96.7095 55.7733 96.4011 55.8533 96.2345 56.02C96.0678 56.1867 95.9845 56.4967 95.9845 56.95V57.085H99.1495V56.95C99.1495 56.5 99.0661 56.1933 98.8995 56.03C98.7361 55.8633 98.4295 55.78 97.9795 55.78H97.1595ZM102.055 60C101.808 60 101.685 59.8767 101.685 59.63V55.41C101.685 55.1667 101.808 55.045 102.055 55.045C102.298 55.045 102.42 55.1667 102.42 55.41V55.93C102.61 55.64 102.86 55.42 103.17 55.27C103.483 55.12 103.847 55.045 104.26 55.045C104.507 55.045 104.63 55.1667 104.63 55.41C104.63 55.6567 104.507 55.78 104.26 55.78C103.677 55.78 103.23 55.8967 102.92 56.13C102.61 56.36 102.443 56.675 102.42 57.075V59.63C102.42 59.8767 102.298 60 102.055 60ZM107.711 59.725C107.671 59.8217 107.616 59.8917 107.546 59.935C107.476 59.9783 107.39 60 107.286 60C107.096 60 106.961 59.9033 106.881 59.71L105.131 55.565C105.028 55.335 105.093 55.175 105.326 55.085C105.543 54.985 105.703 55.05 105.806 55.28L107.481 59.245H107.116L108.931 55.265C108.981 55.165 109.048 55.0983 109.131 55.065C109.218 55.0317 109.315 55.0383 109.421 55.085C109.641 55.1883 109.701 55.3517 109.601 55.575L107.711 59.725ZM111.197 54.195C110.911 54.195 110.767 54.0483 110.767 53.755V53.485C110.767 53.1983 110.911 53.055 111.197 53.055H111.467C111.744 53.055 111.882 53.1983 111.882 53.485V53.755C111.882 54.0483 111.744 54.195 111.467 54.195H111.197ZM111.332 60C111.086 60 110.962 59.8767 110.962 59.63V55.41C110.962 55.1667 111.086 55.045 111.332 55.045C111.576 55.045 111.697 55.1667 111.697 55.41V59.63C111.697 59.8767 111.576 60 111.332 60ZM115.411 60C114.761 60 114.28 59.845 113.966 59.535C113.656 59.2217 113.501 58.74 113.501 58.09V56.94C113.501 56.29 113.655 55.81 113.961 55.5C114.271 55.19 114.755 55.0383 115.411 55.045H116.231C116.725 55.045 117.11 55.1283 117.386 55.295C117.663 55.4617 117.836 55.7183 117.906 56.065C117.93 56.1883 117.906 56.2833 117.836 56.35C117.77 56.4167 117.673 56.45 117.546 56.45C117.433 56.45 117.35 56.4217 117.296 56.365C117.243 56.305 117.196 56.2217 117.156 56.115C117.11 55.9917 117.015 55.905 116.871 55.855C116.731 55.805 116.518 55.78 116.231 55.78H115.411C114.965 55.7733 114.656 55.8533 114.486 56.02C114.32 56.1833 114.236 56.49 114.236 56.94V58.09C114.236 58.54 114.32 58.8483 114.486 59.015C114.656 59.1817 114.965 59.265 115.411 59.265H116.231C116.518 59.265 116.731 59.24 116.871 59.19C117.015 59.14 117.11 59.0517 117.156 58.925C117.196 58.815 117.243 58.7317 117.296 58.675C117.35 58.6183 117.435 58.59 117.551 58.59C117.675 58.59 117.77 58.625 117.836 58.695C117.906 58.7617 117.93 58.855 117.906 58.975C117.836 59.3217 117.663 59.58 117.386 59.75C117.11 59.9167 116.725 60 116.231 60H115.411ZM120.145 57.82V58.1C120.145 58.5433 120.228 58.8483 120.395 59.015C120.561 59.1817 120.87 59.265 121.32 59.265H122.14C122.506 59.265 122.775 59.2267 122.945 59.15C123.118 59.07 123.23 58.9317 123.28 58.735C123.306 58.625 123.348 58.54 123.405 58.48C123.465 58.42 123.553 58.39 123.67 58.39C123.793 58.39 123.886 58.4233 123.95 58.49C124.013 58.5533 124.035 58.6467 124.015 58.77C123.951 59.1867 123.763 59.4967 123.45 59.7C123.14 59.9 122.703 60 122.14 60H121.32C120.67 60 120.188 59.845 119.875 59.535C119.565 59.225 119.41 58.7467 119.41 58.1V56.95C119.41 56.29 119.565 55.8067 119.875 55.5C120.188 55.19 120.67 55.0383 121.32 55.045H122.14C122.79 55.045 123.27 55.2 123.58 55.51C123.89 55.8167 124.045 56.2967 124.045 56.95V57.45C124.045 57.6967 123.923 57.82 123.68 57.82H120.145ZM121.32 55.78C120.87 55.7733 120.561 55.8533 120.395 56.02C120.228 56.1867 120.145 56.4967 120.145 56.95V57.085H123.31V56.95C123.31 56.5 123.226 56.1933 123.06 56.03C122.896 55.8633 122.59 55.78 122.14 55.78H121.32ZM129.145 60C128.898 60 128.775 59.8767 128.775 59.63V53.7C128.775 53.4533 128.898 53.33 129.145 53.33C129.388 53.33 129.51 53.4533 129.51 53.7V59.265H132.37C132.616 59.265 132.74 59.3867 132.74 59.63C132.74 59.8767 132.616 60 132.37 60H129.145ZM134.283 54.195C133.997 54.195 133.853 54.0483 133.853 53.755V53.485C133.853 53.1983 133.997 53.055 134.283 53.055H134.553C134.83 53.055 134.968 53.1983 134.968 53.485V53.755C134.968 54.0483 134.83 54.195 134.553 54.195H134.283ZM134.418 60C134.172 60 134.048 59.8767 134.048 59.63V55.41C134.048 55.1667 134.172 55.045 134.418 55.045C134.662 55.045 134.783 55.1667 134.783 55.41V59.63C134.783 59.8767 134.662 60 134.418 60ZM137.317 60C137.071 60 136.947 59.8767 136.947 59.63V55.78H136.562C136.316 55.78 136.192 55.6567 136.192 55.41C136.192 55.1667 136.316 55.045 136.562 55.045H136.947V54.87C136.947 54.23 137.101 53.7583 137.407 53.455C137.714 53.1483 138.187 52.995 138.827 52.995C139.044 52.995 139.152 53.1167 139.152 53.36C139.152 53.6067 139.044 53.73 138.827 53.73C138.391 53.73 138.091 53.81 137.927 53.97C137.764 54.13 137.682 54.43 137.682 54.87V55.045H138.782C139.029 55.045 139.152 55.1667 139.152 55.41C139.152 55.6567 139.029 55.78 138.782 55.78H137.682V59.63C137.682 59.8767 137.561 60 137.317 60ZM140.691 57.82V58.1C140.691 58.5433 140.775 58.8483 140.941 59.015C141.108 59.1817 141.416 59.265 141.866 59.265H142.686C143.053 59.265 143.321 59.2267 143.491 59.15C143.665 59.07 143.776 58.9317 143.826 58.735C143.853 58.625 143.895 58.54 143.951 58.48C144.011 58.42 144.1 58.39 144.216 58.39C144.34 58.39 144.433 58.4233 144.496 58.49C144.56 58.5533 144.581 58.6467 144.561 58.77C144.498 59.1867 144.31 59.4967 143.996 59.7C143.686 59.9 143.25 60 142.686 60H141.866C141.216 60 140.735 59.845 140.421 59.535C140.111 59.225 139.956 58.7467 139.956 58.1V56.95C139.956 56.29 140.111 55.8067 140.421 55.5C140.735 55.19 141.216 55.0383 141.866 55.045H142.686C143.336 55.045 143.816 55.2 144.126 55.51C144.436 55.8167 144.591 56.2967 144.591 56.95V57.45C144.591 57.6967 144.47 57.82 144.226 57.82H140.691ZM141.866 55.78C141.416 55.7733 141.108 55.8533 140.941 56.02C140.775 56.1867 140.691 56.4967 140.691 56.95V57.085H143.856V56.95C143.856 56.5 143.773 56.1933 143.606 56.03C143.443 55.8633 143.136 55.78 142.686 55.78H141.866Z" fill="white"/>
<path d="M6.56338 58H2H20.0298M6.56338 58H13.2686M6.56338 58L6.50746 33.5225V8.2C6.50746 8.08954 6.597 8 6.70746 8H13.2686M33.4366 58H26.791M33.4366 58H38M33.4366 58L33.5522 33.5225V8.2C33.5522 8.08954 33.4627 8 33.3522 8H26.791M26.791 58V26.5614M26.791 58H20.0298M20.0298 58H13.2686M20.0298 58V40.4837V22.4363M13.2686 58V42.7295V26.5614M13.2686 8H20.0298M13.2686 8V13.6704V19.3424M20.0298 8V15.2173M20.0298 8H26.791M26.791 8V19.3424" stroke="white" stroke-width="4" stroke-linecap="round" stroke-linejoin="round"/>
</svg>
