<svg width="138" height="55" viewBox="0 0 138 55" fill="none" xmlns="http://www.w3.org/2000/svg">
<path d="M45.03 41C43.49 41 42.72 40.23 42.72 38.69V6.02C42.72 4.48 43.49 3.71 45.03 3.71H59.385C62.3 3.71 64.5367 4.48 66.095 6.02C67.6717 7.56 68.46 9.76 68.46 12.62V14.105C68.46 16.58 67.6808 18.4958 66.1225 19.8525C69.0375 21.4842 70.495 24.4633 70.495 28.79V30.66C70.495 34.0333 69.5967 36.6 67.8 38.36C66.0217 40.12 63.455 41 60.1 41H45.03ZM47.34 36.38H60.1C62.1717 36.38 63.6475 35.94 64.5275 35.06C65.4258 34.1617 65.875 32.695 65.875 30.66V28.79C65.875 26.755 65.4442 25.3067 64.5825 24.445C63.7208 23.565 62.2267 23.125 60.1 23.125H47.34V36.38ZM47.34 18.505H60.375C61.7133 18.505 62.6208 18.0925 63.0975 17.2675C63.5925 16.4425 63.84 15.3883 63.84 14.105V12.62C63.84 11.025 63.51 9.91583 62.85 9.2925C62.19 8.65083 61.035 8.33 59.385 8.33H47.34V18.505ZM86.8493 41C83.7143 41 81.2668 40.3675 79.5068 39.1025C77.7652 37.8375 76.6743 35.885 76.2343 33.245C76.161 32.4383 76.326 31.8333 76.7293 31.43C77.1327 31.0267 77.7193 30.825 78.4893 30.825C79.2593 30.825 79.8185 31.0083 80.1668 31.375C80.5335 31.7417 80.781 32.31 80.9093 33.08C81.1843 34.345 81.771 35.2158 82.6693 35.6925C83.586 36.1508 84.9793 36.38 86.8493 36.38H94.7693C97.1343 36.38 98.7385 35.9583 99.5818 35.115C100.444 34.2533 100.874 32.6583 100.874 30.33C100.874 27.965 100.434 26.3517 99.5543 25.49C98.6743 24.61 97.0793 24.17 94.7693 24.17H87.9493C84.4843 24.17 81.9085 23.3267 80.2218 21.64C78.5535 19.935 77.7193 17.35 77.7193 13.885C77.7193 10.4383 78.5443 7.88083 80.1943 6.2125C81.8627 4.54416 84.4293 3.71 87.8943 3.71H94.4393C97.3543 3.71 99.6368 4.30583 101.287 5.4975C102.955 6.68917 104.009 8.51333 104.449 10.97C104.559 11.7583 104.413 12.3633 104.009 12.785C103.606 13.1883 103.001 13.39 102.194 13.39C101.461 13.39 100.911 13.1975 100.544 12.8125C100.178 12.4275 99.9393 11.8683 99.8293 11.135C99.536 10.0533 98.9768 9.32 98.1518 8.935C97.3268 8.53167 96.0893 8.33 94.4393 8.33H87.8943C85.6943 8.33 84.2185 8.72416 83.4668 9.5125C82.7152 10.2825 82.3393 11.74 82.3393 13.885C82.3393 16.0483 82.7243 17.5333 83.4943 18.34C84.2643 19.1467 85.7493 19.55 87.9493 19.55H94.7693C98.381 19.55 101.067 20.43 102.827 22.19C104.605 23.95 105.494 26.6633 105.494 30.33C105.494 33.9783 104.614 36.6733 102.854 38.415C101.094 40.1383 98.3993 41 94.7693 41H86.8493ZM115.718 41C114.178 41 113.408 40.23 113.408 38.69V6.02C113.408 4.48 114.178 3.71 115.718 3.71C117.258 3.71 118.028 4.48 118.028 6.02V36.38H133.263C134.803 36.38 135.573 37.15 135.573 38.69C135.573 40.23 134.803 41 133.263 41H115.718Z" fill="white"/>
<path d="M43.314 53C43.062 53 42.936 52.874 42.936 52.622V47.276C42.936 47.024 43.062 46.898 43.314 46.898H45.663C46.14 46.898 46.506 47.024 46.761 47.276C47.019 47.528 47.148 47.888 47.148 48.356V48.599C47.148 49.004 47.0205 49.3175 46.7655 49.5395C47.2425 49.8065 47.481 50.294 47.481 51.002V51.308C47.481 51.86 47.334 52.28 47.04 52.568C46.749 52.856 46.329 53 45.78 53H43.314ZM43.692 52.244H45.78C46.119 52.244 46.3605 52.172 46.5045 52.028C46.6515 51.881 46.725 51.641 46.725 51.308V51.002C46.725 50.669 46.6545 50.432 46.5135 50.291C46.3725 50.147 46.128 50.075 45.78 50.075H43.692V52.244ZM43.692 49.319H45.825C46.044 49.319 46.1925 49.2515 46.2705 49.1165C46.3515 48.9815 46.392 48.809 46.392 48.599V48.356C46.392 48.095 46.338 47.9135 46.23 47.8115C46.122 47.7065 45.933 47.654 45.663 47.654H43.692V49.319ZM52.6997 48.437C52.9517 48.437 53.0777 48.563 53.0777 48.815V52.622C53.0777 52.874 52.9517 53 52.6997 53C52.4477 53 52.3217 52.874 52.3217 52.622V52.4735C52.0037 52.8245 51.5357 53 50.9177 53H50.6657C50.0687 53 49.6247 52.856 49.3337 52.568C49.0457 52.277 48.9017 51.833 48.9017 51.236V48.815C48.9017 48.563 49.0277 48.437 49.2797 48.437C49.5317 48.437 49.6577 48.563 49.6577 48.815V51.236C49.6577 51.626 49.7282 51.8915 49.8692 52.0325C50.0132 52.1735 50.2787 52.244 50.6657 52.244H50.9177C51.2777 52.244 51.5912 52.202 51.8582 52.118C52.1282 52.034 52.2827 51.905 52.3217 51.731V48.815C52.3217 48.563 52.4477 48.437 52.6997 48.437ZM55.2026 47.699C54.9176 47.699 54.7751 47.555 54.7751 47.267V47.0015C54.7751 46.7195 54.9176 46.5785 55.2026 46.5785H55.4636C55.7366 46.5785 55.8731 46.7195 55.8731 47.0015V47.267C55.8731 47.555 55.7366 47.699 55.4636 47.699H55.2026ZM55.3286 53C55.0766 53 54.9506 52.874 54.9506 52.622V48.815C54.9506 48.563 55.0766 48.437 55.3286 48.437C55.5806 48.437 55.7066 48.563 55.7066 48.815V52.622C55.7066 52.874 55.5806 53 55.3286 53ZM58.9376 53C58.4786 53 58.1366 52.8875 57.9116 52.6625C57.6896 52.4345 57.5786 52.091 57.5786 51.632V47.042C57.5786 46.79 57.7046 46.664 57.9566 46.664C58.2086 46.664 58.3346 46.79 58.3346 47.042V51.632C58.3346 51.875 58.3736 52.0385 58.4516 52.1225C58.5326 52.2035 58.6946 52.244 58.9376 52.244C59.1956 52.244 59.3246 52.37 59.3246 52.622C59.3336 52.874 59.2046 53 58.9376 53ZM62.0358 53C61.4388 53 60.9948 52.856 60.7038 52.568C60.4158 52.277 60.2718 51.833 60.2718 51.236V50.201C60.2718 49.601 60.4158 49.157 60.7038 48.869C60.9948 48.581 61.4388 48.437 62.0358 48.437H63.7818V47.042C63.7818 46.79 63.9078 46.664 64.1598 46.664C64.4118 46.664 64.5378 46.79 64.5378 47.042V52.622C64.5378 52.874 64.4118 53 64.1598 53C63.9078 53 63.7818 52.874 63.7818 52.622V52.559C63.6408 52.703 63.4563 52.8125 63.2283 52.8875C63.0003 52.9625 62.7168 53 62.3778 53H62.0358ZM62.0358 52.244H62.3778C62.7738 52.244 63.1068 52.193 63.3768 52.091C63.6468 51.989 63.7818 51.833 63.7818 51.623V49.193H62.0358C61.6458 49.193 61.3803 49.265 61.2393 49.409C61.0983 49.55 61.0278 49.814 61.0278 50.201V51.236C61.0278 51.626 61.0983 51.8915 61.2393 52.0325C61.3833 52.1735 61.6488 52.244 62.0358 52.244ZM66.5757 47.699C66.2907 47.699 66.1482 47.555 66.1482 47.267V47.0015C66.1482 46.7195 66.2907 46.5785 66.5757 46.5785H66.8367C67.1097 46.5785 67.2462 46.7195 67.2462 47.0015V47.267C67.2462 47.555 67.1097 47.699 66.8367 47.699H66.5757ZM66.7017 53C66.4497 53 66.3237 52.874 66.3237 52.622V48.815C66.3237 48.563 66.4497 48.437 66.7017 48.437C66.9537 48.437 67.0797 48.563 67.0797 48.815V52.622C67.0797 52.874 66.9537 53 66.7017 53ZM69.3296 53C69.0776 53 68.9516 52.874 68.9516 52.622V48.815C68.9516 48.563 69.0776 48.437 69.3296 48.437C69.5816 48.437 69.7076 48.563 69.7076 48.815V48.9635C70.0256 48.6125 70.4936 48.437 71.1116 48.437H71.3636C71.9636 48.437 72.4076 48.581 72.6956 48.869C72.9836 49.157 73.1276 49.601 73.1276 50.201V52.622C73.1276 52.874 73.0016 53 72.7496 53C72.4976 53 72.3716 52.874 72.3716 52.622V50.201C72.3716 49.808 72.2996 49.5425 72.1556 49.4045C72.0146 49.2635 71.7506 49.193 71.3636 49.193H71.1116C70.7516 49.193 70.4381 49.235 70.1711 49.319C69.9041 49.4 69.7496 49.529 69.7076 49.706V52.622C69.7076 52.874 69.5816 53 69.3296 53ZM75.9906 54.8C75.6276 54.8 75.3411 54.7265 75.1311 54.5795C74.9241 54.4325 74.7906 54.209 74.7306 53.909C74.7096 53.783 74.7321 53.684 74.7981 53.612C74.8641 53.54 74.9646 53.504 75.0996 53.504C75.2136 53.504 75.2961 53.534 75.3471 53.594C75.4011 53.657 75.4476 53.75 75.4866 53.873C75.5226 53.939 75.5781 53.984 75.6531 54.008C75.7311 54.032 75.8436 54.044 75.9906 54.044H77.6646C77.8896 54.044 78.0351 54.008 78.1011 53.936C78.1701 53.867 78.2046 53.723 78.2046 53.504V52.4555C78.0426 52.6325 77.8416 52.7675 77.6016 52.8605C77.3646 52.9535 77.0976 53 76.8006 53H76.4586C75.8616 53 75.4176 52.856 75.1266 52.568C74.8386 52.28 74.6946 51.839 74.6946 51.245V50.201C74.6946 49.598 74.8371 49.154 75.1221 48.869C75.4101 48.581 75.8556 48.437 76.4586 48.437H77.1966C77.4096 48.437 77.6001 48.4685 77.7681 48.5315C77.9391 48.5945 78.0846 48.6905 78.2046 48.8195V48.815C78.2046 48.563 78.3306 48.437 78.5826 48.437C78.8346 48.437 78.9606 48.563 78.9606 48.815V53.504C78.9606 53.945 78.8541 54.2705 78.6411 54.4805C78.4311 54.6935 78.1056 54.8 77.6646 54.8H75.9906ZM76.4586 52.244H76.8006C77.1966 52.244 77.5296 52.1945 77.7996 52.0955C78.0696 51.9965 78.2046 51.839 78.2046 51.623V49.823C78.2046 49.58 78.1161 49.415 77.9391 49.328C77.7651 49.238 77.5176 49.193 77.1966 49.193H76.4586C76.0716 49.193 75.8061 49.262 75.6621 49.4C75.5211 49.538 75.4506 49.805 75.4506 50.201V51.245C75.4506 51.626 75.5211 51.8885 75.6621 52.0325C75.8031 52.1735 76.0686 52.244 76.4586 52.244ZM85.1021 53C84.5891 53 84.1886 52.8965 83.9006 52.6895C83.6156 52.4825 83.4371 52.163 83.3651 51.731C83.3531 51.599 83.3801 51.5 83.4461 51.434C83.5121 51.368 83.6081 51.335 83.7341 51.335C83.8601 51.335 83.9516 51.365 84.0086 51.425C84.0686 51.485 84.1091 51.578 84.1301 51.704C84.1751 51.911 84.2711 52.0535 84.4181 52.1315C84.5681 52.2065 84.7961 52.244 85.1021 52.244H86.3981C86.7851 52.244 87.0476 52.175 87.1856 52.037C87.3266 51.896 87.3971 51.635 87.3971 51.254C87.3971 50.867 87.3251 50.603 87.1811 50.462C87.0371 50.318 86.7761 50.246 86.3981 50.246H85.2821C84.7151 50.246 84.2936 50.108 84.0176 49.832C83.7446 49.553 83.6081 49.13 83.6081 48.563C83.6081 47.999 83.7431 47.5805 84.0131 47.3075C84.2861 47.0345 84.7061 46.898 85.2731 46.898H86.3441C86.8211 46.898 87.1946 46.9955 87.4646 47.1905C87.7376 47.3855 87.9101 47.684 87.9821 48.086C88.0001 48.215 87.9761 48.314 87.9101 48.383C87.8441 48.449 87.7451 48.482 87.6131 48.482C87.4931 48.482 87.4031 48.4505 87.3431 48.3875C87.2831 48.3245 87.2441 48.233 87.2261 48.113C87.1781 47.936 87.0866 47.816 86.9516 47.753C86.8166 47.687 86.6141 47.654 86.3441 47.654H85.2731C84.9131 47.654 84.6716 47.7185 84.5486 47.8475C84.4256 47.9735 84.3641 48.212 84.3641 48.563C84.3641 48.917 84.4271 49.16 84.5531 49.292C84.6791 49.424 84.9221 49.49 85.2821 49.49H86.3981C86.9891 49.49 87.4286 49.634 87.7166 49.922C88.0076 50.21 88.1531 50.654 88.1531 51.254C88.1531 51.851 88.0091 52.292 87.7211 52.577C87.4331 52.859 86.9921 53 86.3981 53H85.1021ZM90.3481 51.029V51.245C90.3481 51.632 90.4186 51.896 90.5596 52.037C90.7006 52.175 90.9661 52.244 91.3561 52.244H92.0941C92.4001 52.244 92.6266 52.2155 92.7736 52.1585C92.9206 52.1015 93.0181 52.001 93.0661 51.857C93.0991 51.743 93.1441 51.656 93.2011 51.596C93.2611 51.536 93.3511 51.506 93.4711 51.506C93.5971 51.506 93.6931 51.539 93.7591 51.605C93.8251 51.671 93.8461 51.767 93.8221 51.893C93.7561 52.265 93.5791 52.5425 93.2911 52.7255C93.0031 52.9085 92.6041 53 92.0941 53H91.3561C90.7591 53 90.3151 52.856 90.0241 52.568C89.7361 52.28 89.5921 51.839 89.5921 51.245V50.201C89.5921 49.592 89.7361 49.145 90.0241 48.86C90.3151 48.572 90.7591 48.431 91.3561 48.437H92.0941C92.6941 48.437 93.1381 48.581 93.4261 48.869C93.7141 49.154 93.8581 49.598 93.8581 50.201V50.651C93.8581 50.903 93.7321 51.029 93.4801 51.029H90.3481ZM91.3561 49.193C90.9661 49.187 90.7006 49.2545 90.5596 49.3955C90.4186 49.5365 90.3481 49.805 90.3481 50.201V50.273H93.1021V50.201C93.1021 49.808 93.0316 49.5425 92.8906 49.4045C92.7526 49.2635 92.4871 49.193 92.0941 49.193H91.3561ZM95.8902 53C95.6382 53 95.5122 52.874 95.5122 52.622V48.815C95.5122 48.563 95.6382 48.437 95.8902 48.437C96.1422 48.437 96.2682 48.563 96.2682 48.815V49.166C96.4452 48.926 96.6702 48.7445 96.9432 48.6215C97.2192 48.4985 97.5342 48.437 97.8882 48.437C98.1402 48.437 98.2662 48.563 98.2662 48.815C98.2662 49.067 98.1402 49.193 97.8882 49.193C97.3692 49.193 96.9732 49.289 96.7002 49.481C96.4272 49.673 96.2832 49.9265 96.2682 50.2415V52.622C96.2682 52.874 96.1422 53 95.8902 53ZM101.135 52.721C101.096 52.814 101.04 52.8845 100.968 52.9325C100.899 52.9775 100.811 53 100.703 53C100.514 53 100.379 52.901 100.298 52.703L98.768 48.977C98.663 48.737 98.729 48.572 98.966 48.482C99.191 48.377 99.356 48.443 99.461 48.68L100.892 52.172H100.541L102.107 48.662C102.158 48.563 102.227 48.4955 102.314 48.4595C102.404 48.4235 102.503 48.431 102.611 48.482C102.833 48.587 102.893 48.755 102.791 48.986L101.135 52.721ZM104.342 47.699C104.057 47.699 103.915 47.555 103.915 47.267V47.0015C103.915 46.7195 104.057 46.5785 104.342 46.5785H104.603C104.876 46.5785 105.013 46.7195 105.013 47.0015V47.267C105.013 47.555 104.876 47.699 104.603 47.699H104.342ZM104.468 53C104.216 53 104.09 52.874 104.09 52.622V48.815C104.09 48.563 104.216 48.437 104.468 48.437C104.72 48.437 104.846 48.563 104.846 48.815V52.622C104.846 52.874 104.72 53 104.468 53ZM108.266 53C107.669 53 107.225 52.856 106.934 52.568C106.646 52.277 106.502 51.833 106.502 51.236V50.192C106.502 49.592 106.645 49.148 106.93 48.86C107.218 48.572 107.663 48.431 108.266 48.437H109.004C109.451 48.437 109.802 48.512 110.057 48.662C110.315 48.812 110.48 49.043 110.552 49.355C110.579 49.481 110.557 49.5785 110.485 49.6475C110.416 49.7165 110.315 49.751 110.183 49.751C110.066 49.751 109.981 49.721 109.927 49.661C109.873 49.601 109.823 49.517 109.778 49.409C109.733 49.328 109.651 49.2725 109.531 49.2425C109.411 49.2095 109.235 49.193 109.004 49.193H108.266C107.879 49.187 107.614 49.2545 107.47 49.3955C107.329 49.5335 107.258 49.799 107.258 50.192V51.236C107.258 51.626 107.329 51.8915 107.47 52.0325C107.614 52.1735 107.879 52.244 108.266 52.244H109.004C109.235 52.244 109.411 52.229 109.531 52.199C109.651 52.166 109.733 52.109 109.778 52.028C109.823 51.914 109.873 51.8285 109.927 51.7715C109.984 51.7145 110.072 51.686 110.192 51.686C110.318 51.686 110.416 51.7205 110.485 51.7895C110.557 51.8585 110.579 51.956 110.552 52.082C110.48 52.391 110.315 52.622 110.057 52.775C109.802 52.925 109.451 53 109.004 53H108.266ZM112.664 51.029V51.245C112.664 51.632 112.734 51.896 112.875 52.037C113.016 52.175 113.282 52.244 113.672 52.244H114.41C114.716 52.244 114.942 52.2155 115.089 52.1585C115.236 52.1015 115.334 52.001 115.382 51.857C115.415 51.743 115.46 51.656 115.517 51.596C115.577 51.536 115.667 51.506 115.787 51.506C115.913 51.506 116.009 51.539 116.075 51.605C116.141 51.671 116.162 51.767 116.138 51.893C116.072 52.265 115.895 52.5425 115.607 52.7255C115.319 52.9085 114.92 53 114.41 53H113.672C113.075 53 112.631 52.856 112.34 52.568C112.052 52.28 111.908 51.839 111.908 51.245V50.201C111.908 49.592 112.052 49.145 112.34 48.86C112.631 48.572 113.075 48.431 113.672 48.437H114.41C115.01 48.437 115.454 48.581 115.742 48.869C116.03 49.154 116.174 49.598 116.174 50.201V50.651C116.174 50.903 116.048 51.029 115.796 51.029H112.664ZM113.672 49.193C113.282 49.187 113.016 49.2545 112.875 49.3955C112.734 49.5365 112.664 49.805 112.664 50.201V50.273H115.418V50.201C115.418 49.808 115.347 49.5425 115.206 49.4045C115.068 49.2635 114.803 49.193 114.41 49.193H113.672ZM121.036 53C120.784 53 120.658 52.874 120.658 52.622V47.276C120.658 47.024 120.784 46.898 121.036 46.898C121.288 46.898 121.414 47.024 121.414 47.276V52.244H123.907C124.159 52.244 124.285 52.37 124.285 52.622C124.285 52.874 124.159 53 123.907 53H121.036ZM125.779 47.699C125.494 47.699 125.351 47.555 125.351 47.267V47.0015C125.351 46.7195 125.494 46.5785 125.779 46.5785H126.04C126.313 46.5785 126.449 46.7195 126.449 47.0015V47.267C126.449 47.555 126.313 47.699 126.04 47.699H125.779ZM125.905 53C125.653 53 125.527 52.874 125.527 52.622V48.815C125.527 48.563 125.653 48.437 125.905 48.437C126.157 48.437 126.283 48.563 126.283 48.815V52.622C126.283 52.874 126.157 53 125.905 53ZM128.704 53C128.452 53 128.326 52.874 128.326 52.622V49.193H127.993C127.741 49.193 127.615 49.067 127.615 48.815C127.615 48.563 127.741 48.437 127.993 48.437H128.326V48.401C128.326 47.81 128.468 47.3735 128.753 47.0915C129.038 46.8065 129.475 46.664 130.063 46.664C130.279 46.664 130.387 46.79 130.387 47.042C130.387 47.294 130.279 47.42 130.063 47.42C129.685 47.42 129.427 47.4875 129.289 47.6225C129.151 47.7575 129.082 48.017 129.082 48.401V48.437H130.009C130.261 48.437 130.387 48.563 130.387 48.815C130.387 49.067 130.261 49.193 130.009 49.193H129.082V52.622C129.082 52.874 128.956 53 128.704 53ZM131.894 51.029V51.245C131.894 51.632 131.964 51.896 132.105 52.037C132.246 52.175 132.512 52.244 132.902 52.244H133.64C133.946 52.244 134.172 52.2155 134.319 52.1585C134.466 52.1015 134.564 52.001 134.612 51.857C134.645 51.743 134.69 51.656 134.747 51.596C134.807 51.536 134.897 51.506 135.017 51.506C135.143 51.506 135.239 51.539 135.305 51.605C135.371 51.671 135.392 51.767 135.368 51.893C135.302 52.265 135.125 52.5425 134.837 52.7255C134.549 52.9085 134.15 53 133.64 53H132.902C132.305 53 131.861 52.856 131.57 52.568C131.282 52.28 131.138 51.839 131.138 51.245V50.201C131.138 49.592 131.282 49.145 131.57 48.86C131.861 48.572 132.305 48.431 132.902 48.437H133.64C134.24 48.437 134.684 48.581 134.972 48.869C135.26 49.154 135.404 49.598 135.404 50.201V50.651C135.404 50.903 135.278 51.029 135.026 51.029H131.894ZM132.902 49.193C132.512 49.187 132.246 49.2545 132.105 49.3955C131.964 49.5365 131.894 49.805 131.894 50.201V50.273H134.648V50.201C134.648 49.808 134.577 49.5425 134.436 49.4045C134.298 49.2635 134.033 49.193 133.64 49.193H132.902Z" fill="white"/>
<path d="M6.30986 50H2H19.0282M6.30986 50H12.6426M6.30986 50L6.25704 27.9703V5.2C6.25704 5.08954 6.34659 5 6.45704 5H12.6426M31.6901 50H25.4137M31.6901 50H36M31.6901 50L31.7993 27.9703V5.2C31.7993 5.08954 31.7098 5 31.5993 5H25.4137M25.4137 50V21.7053M25.4137 50H19.0282M19.0282 50H12.6426M19.0282 50V34.2353V17.9927M12.6426 50V36.2566V21.7053M12.6426 5H19.0282M12.6426 5V10.1034V15.2082M19.0282 5V11.4956M19.0282 5H25.4137M25.4137 5V15.2082" stroke="white" stroke-width="4" stroke-linecap="round" stroke-linejoin="round"/>
</svg>
