<svg width="64" height="64" viewBox="0 0 64 64" fill="none" xmlns="http://www.w3.org/2000/svg">
<path d="M54.6667 26.6668H52.6667C52.1334 24.8002 51.4667 22.9335 50.4 21.2002L51.8667 19.7335C53.4667 18.1335 53.4667 15.6002 51.8667 14.1335L50 12.2668C48.4 10.6668 45.8667 10.6668 44.4 12.2668L42.9334 13.7335C41.2 12.6668 39.3334 12.0002 37.4667 11.4668V9.3335C37.4667 7.06683 35.7334 5.3335 33.4667 5.3335H30.8C28.5334 5.3335 26.8 7.06683 26.8 9.3335V11.3335C26.2667 11.4668 25.6 11.7335 25.0667 11.8668C24.4 12.1335 24 12.9335 24.2667 13.6002C24.5334 14.2668 25.3334 14.6668 26 14.4002C26.8 14.1335 27.6 13.8668 28.5334 13.7335C29.2 13.6002 29.6 13.0668 29.6 12.4002V9.3335C29.6 8.5335 30.1334 8.00016 30.9334 8.00016H33.6C34.4 8.00016 34.9334 8.5335 34.9334 9.3335V12.4002C34.9334 13.0668 35.3334 13.6002 36 13.7335C38.2667 14.2668 40.5334 15.0668 42.5334 16.4002C43.0667 16.8002 43.7334 16.6668 44.2667 16.2668L46.4 14.1335C46.9334 13.6002 47.7334 13.6002 48.2667 14.1335L50.1334 16.0002C50.6667 16.5335 50.6667 17.3335 50.1334 17.8668L47.7334 20.0002C47.3334 20.4002 47.2 21.2002 47.6 21.7335C48.9334 23.7335 49.8667 26.0002 50.2667 28.2668C50.4 28.9335 50.9334 29.3335 51.6 29.3335H54.6667C55.4667 29.3335 56 29.8668 56 30.6668V33.3335C56 34.1335 55.4667 34.6668 54.6667 34.6668H51.6C50.9334 34.6668 50.4 35.0668 50.2667 35.7335C49.7334 38.0002 48.9334 40.2668 47.6 42.2668C47.2 42.8002 47.3334 43.4668 47.7334 44.0002L49.8667 46.1335C50.4 46.6668 50.4 47.4668 49.8667 48.0002L48 49.8668C47.4667 50.4002 46.6667 50.4002 46.1334 49.8668L44 47.7335C43.6 47.3335 42.8 47.2002 42.2667 47.6002C40.2667 48.9335 38 49.8668 35.7334 50.2668C35.0667 50.4002 34.6667 50.9335 34.6667 51.6002V54.6668C34.6667 55.4668 34.1334 56.0002 33.3334 56.0002H30.6667C29.8667 56.0002 29.3334 55.4668 29.3334 54.6668V51.6002C29.3334 50.9335 28.9334 50.4002 28.2667 50.2668C27.4667 50.1335 26.6667 49.8668 25.7334 49.6002C25.0667 49.3335 24.2667 49.7335 24 50.4002C23.7334 51.0668 24.1334 51.8668 24.8 52.1335C25.3334 52.4002 26 52.5335 26.5334 52.6668V54.6668C26.5334 56.9335 28.2667 58.6668 30.5334 58.6668H33.2C35.4667 58.6668 37.2 56.9335 37.2 54.6668V52.6668C39.0667 52.1335 40.9334 51.4668 42.6667 50.4002L44.1334 51.8668C45.7334 53.4668 48.2667 53.4668 49.7334 51.8668L51.6 50.0002C53.2 48.4002 53.2 45.8668 51.6 44.4002L50.1334 42.9335C51.2 41.2002 51.8667 39.3335 52.4 37.4668H54.6667C56.9334 37.4668 58.6667 35.7335 58.6667 33.4668V30.8002C58.6667 28.4002 56.9334 26.6668 54.6667 26.6668Z" fill="#62D7CB"/>
<path d="M38.7999 18.9332L36.3999 17.8665C35.0665 17.3332 33.4665 17.9998 32.9332 19.3332L32.6665 19.9998C32.2665 19.9998 31.8665 19.9998 31.4665 19.9998L31.1999 19.3332C30.9332 18.6665 30.3999 18.1332 29.7332 17.8665C29.0665 17.5998 28.3999 17.5998 27.7332 17.8665L25.1999 18.9332C24.9332 19.0665 24.7999 19.1998 24.6665 19.3332C24.1332 19.7332 23.9999 20.5332 24.3999 21.1998C24.7999 21.7332 25.7332 21.8665 26.2665 21.4665L28.6665 20.3998L29.3332 21.9998C29.5999 22.5332 30.1332 22.9332 30.7999 22.7998C31.5999 22.6665 32.5332 22.6665 33.3332 22.7998C33.8665 22.9332 34.5332 22.5332 34.7999 21.9998L35.4665 20.3998L37.8665 21.4665L37.1999 23.0665C36.9332 23.5998 37.1999 24.2665 37.5999 24.6665C37.9999 24.9332 38.2665 25.1998 38.6665 25.4665C38.9332 25.7332 39.1999 26.1332 39.4665 26.3998C39.8665 26.9332 40.5332 27.0665 41.0665 26.7998L42.6665 26.1332L43.7332 28.5332L41.9999 29.3332C41.4665 29.5998 41.0665 30.1332 41.1999 30.7998C41.3332 31.5998 41.3332 32.5332 41.1999 33.3332C41.0665 33.9998 41.4665 34.5332 41.9999 34.7998L43.5999 35.4665L42.5332 37.8665L40.9332 37.1998C40.3999 36.9332 39.7332 37.1998 39.3332 37.5998C39.0665 37.9998 38.7999 38.2665 38.5332 38.6665C38.2665 38.9332 37.8665 39.1998 37.5999 39.4665C37.0665 39.8665 36.9332 40.5332 37.1999 41.0665L37.8665 42.6665L35.4665 43.7332L34.6665 41.9998C34.3999 41.4665 33.8665 41.0665 33.1999 41.1998C32.3999 41.3332 31.4665 41.3332 30.6665 41.1998C29.9999 41.0665 29.4665 41.4665 29.1999 41.9998L28.5332 43.5998L26.1332 42.6665C26.1332 42.6665 26.1332 42.6665 25.9999 42.6665C25.4665 42.2665 24.5332 42.3998 24.1332 42.9332C23.7332 43.4665 23.8665 44.3998 24.3999 44.7998C24.5332 44.9332 24.7999 45.0665 25.0665 45.1998L27.4665 46.2665C27.7332 46.3998 28.1332 46.5332 28.5332 46.5332C28.9332 46.5332 29.1999 46.3998 29.5999 46.2665C30.2665 45.9998 30.7999 45.4665 31.0665 44.7998L31.3332 44.1332C31.7332 44.1332 32.1332 44.1332 32.5332 44.1332L32.7999 44.7998C33.3332 46.1332 34.9332 46.7998 36.2665 46.2665L38.7999 45.1998C40.1332 44.6665 40.7999 43.0665 40.2665 41.7332L39.9999 40.9332C40.1332 40.7998 40.2665 40.6665 40.3999 40.5332C40.5332 40.3998 40.6665 40.1332 40.9332 39.9998L41.5999 40.2665C42.9332 40.7998 44.5332 40.1332 45.0665 38.7998L46.1332 36.3998C46.3999 35.7332 46.3999 35.0665 46.1332 34.3998C45.8665 33.7332 45.3332 33.1998 44.6665 32.9332L43.9999 32.6665C43.9999 32.2665 43.9999 31.8665 43.9999 31.4665L44.6665 31.1998C45.3332 30.9332 45.8665 30.3998 46.1332 29.7332C46.3999 29.0665 46.3999 28.3998 46.1332 27.7332L45.0665 25.1998C44.5332 23.8665 42.9332 23.1998 41.5999 23.7332L40.9332 23.9998C40.7999 23.8665 40.6665 23.7332 40.5332 23.5998C40.3999 23.4665 40.1332 23.3332 39.9999 23.0665L40.2665 22.3998C40.7999 21.0665 40.1332 19.5998 38.7999 18.9332Z" fill="#62D7CB"/>
<path d="M15.9999 21.3333C19.7333 21.3333 22.6666 18.4 22.6666 14.6667C22.6666 10.9333 19.7333 8 15.9999 8C12.2666 8 9.33325 10.9333 9.33325 14.6667C9.33325 18.4 12.2666 21.3333 15.9999 21.3333ZM15.9999 10.6667C18.2666 10.6667 19.9999 12.4 19.9999 14.6667C19.9999 16.9333 18.2666 18.6667 15.9999 18.6667C13.7333 18.6667 11.9999 16.9333 11.9999 14.6667C11.9999 12.4 13.7333 10.6667 15.9999 10.6667Z" fill="#62D7CB"/>
<path d="M8.66659 39.9998C8.93325 39.9998 9.06659 39.9998 9.33325 39.8665V50.5332C9.33325 51.5998 9.73325 52.6665 10.5333 53.4665C11.3333 54.2665 12.2666 54.6665 13.3333 54.6665C13.3333 54.6665 13.3333 54.6665 13.4666 54.6665C14.5333 54.6665 15.3333 54.2665 16.1333 53.5998C16.7999 54.2665 17.7333 54.6665 18.7999 54.6665C20.9333 54.6665 22.7999 52.9332 22.7999 50.6665V39.8665C23.0666 39.8665 23.1999 39.9998 23.4666 39.9998C25.3333 39.9998 26.7999 38.5332 26.7999 36.6665V27.9998C26.7999 25.0665 24.3999 22.6665 21.4666 22.6665H10.6666C7.73325 22.6665 5.33325 25.0665 5.33325 27.9998V36.6665C5.33325 38.5332 6.79992 39.9998 8.66659 39.9998ZM7.99992 27.9998C7.99992 26.5332 9.19992 25.3332 10.6666 25.3332H21.3333C22.7999 25.3332 23.9999 26.5332 23.9999 27.9998V36.6665C23.9999 37.0665 23.7333 37.3332 23.3333 37.3332C22.9333 37.3332 22.6666 37.0665 22.6666 36.6665V30.6665C22.6666 29.8665 22.1333 29.3332 21.3333 29.3332C20.5333 29.3332 19.9999 29.8665 19.9999 30.6665V36.6665V50.6665C19.9999 51.3332 19.3333 51.9998 18.6666 51.9998C17.9999 51.9998 17.3333 51.3332 17.3333 50.6665V40.5332C17.3333 39.7332 16.7999 39.1998 15.9999 39.1998C15.1999 39.1998 14.6666 39.7332 14.6666 40.5332V50.6665C14.6666 51.3332 14.1333 51.9998 13.3333 51.9998C12.9333 51.9998 12.6666 51.8665 12.3999 51.5998C12.1333 51.3332 11.9999 51.0665 11.9999 50.6665V36.6665V30.6665C11.9999 29.8665 11.4666 29.3332 10.6666 29.3332C9.86659 29.3332 9.33325 29.8665 9.33325 30.6665V36.6665C9.33325 37.0665 9.06659 37.3332 8.66659 37.3332C8.26659 37.3332 7.99992 37.0665 7.99992 36.6665V27.9998Z" fill="#62D7CB"/>
<path d="M31.9999 36.0001C31.3333 36.0001 30.6666 35.8668 29.9999 35.4668C29.3333 35.0668 28.5333 35.3335 28.1333 36.0001C27.7333 36.6668 27.9999 37.4668 28.6666 37.8668C29.7333 38.4001 30.7999 38.8001 31.9999 38.8001C35.7333 38.8001 38.6666 35.8668 38.6666 32.1335C38.6666 28.4001 35.7333 25.4668 31.9999 25.4668C30.7999 25.4668 29.5999 25.7335 28.6666 26.4001C27.9999 26.6668 27.7333 27.4668 28.1333 28.0001C28.5333 28.6668 29.3333 28.8001 29.9999 28.5335C30.6666 28.1335 31.3333 28.0001 31.9999 28.0001C34.2666 28.0001 35.9999 29.7335 35.9999 32.0001C35.9999 34.2668 34.2666 36.0001 31.9999 36.0001Z" fill="#62D7CB"/>
</svg>
