<svg width="64" height="64" viewBox="0 0 64 64" fill="none" xmlns="http://www.w3.org/2000/svg">
<path fill-rule="evenodd" clip-rule="evenodd" d="M32 0C40.32 0 47.2 6.88001 47.2 15.2C47.2 23.52 40.32 30.4 32 30.4C23.68 30.4 16.8 23.52 16.8 15.2C16.8 6.88001 23.68 0 32 0ZM32 3.20001C25.44 3.20001 20 8.64001 20 15.2C20 18.08 20.96 20.64 22.72 22.72C23.04 21.44 23.68 20.48 24.64 19.68C25.44 19.04 26.4 18.72 27.52 18.72H36.48C37.44 18.72 38.56 19.04 39.36 19.68C40.32 20.48 40.96 21.6 41.28 22.72C43.04 20.64 44 18.08 44 15.2C44 8.64001 38.56 3.20001 32 3.20001ZM25.76 23.84V25.44C27.52 26.56 29.76 27.2 32 27.2C34.24 27.2 36.48 26.56 38.24 25.44V23.84C38.24 23.2 37.92 22.56 37.44 22.24C37.28 22.08 36.96 21.92 36.48 21.92H27.52C27.04 21.92 26.72 22.08 26.56 22.24C26.08 22.56 25.76 23.2 25.76 23.84ZM37.6 12C37.6 15.04 35.04 17.6 32 17.6C28.96 17.6 26.4 15.04 26.4 12C26.4 8.96001 28.96 6.40001 32 6.40001C35.04 6.40001 37.6 8.96001 37.6 12ZM34.4 12C34.4 10.72 33.28 9.60001 32 9.60001C30.72 9.60001 29.6 10.72 29.6 12C29.6 13.28 30.72 14.4 32 14.4C33.28 14.4 34.4 13.28 34.4 12ZM15.2 33.6001C6.88 33.6001 0 40.4801 0 48.8001C0 57.1201 6.88 64.0001 15.2 64.0001C23.52 64.0001 30.4 57.1201 30.4 48.8001C30.4 40.4801 23.52 33.6001 15.2 33.6001ZM8.96 59.0401V57.4401C8.96 56.8001 9.28 56.1601 9.76 55.8401C9.92 55.6801 10.24 55.5201 10.72 55.5201H19.68C20.16 55.5201 20.48 55.6801 20.64 55.8401C21.12 56.1601 21.44 56.8001 21.44 57.4401V59.0401C19.68 60.1601 17.44 60.8001 15.2 60.8001C12.96 60.8001 10.72 60.1601 8.96 59.0401ZM24.48 56.3201C24.16 55.2001 23.52 54.0801 22.56 53.2801C21.76 52.6401 20.64 52.3201 19.68 52.3201H10.72C9.6 52.3201 8.64 52.6401 7.84 53.2801C6.88 54.0801 6.24 55.0401 5.92 56.3201C4.32 54.2401 3.2 51.6801 3.2 48.8001C3.2 42.2401 8.64 36.8001 15.2 36.8001C21.76 36.8001 27.2 42.2401 27.2 48.8001C27.2 51.6801 26.24 54.2401 24.48 56.3201ZM9.6 45.6001C9.6 42.5601 12.16 40.0001 15.2 40.0001C18.24 40.0001 20.8 42.5601 20.8 45.6001C20.8 48.6401 18.24 51.2001 15.2 51.2001C12.16 51.2001 9.6 48.6401 9.6 45.6001ZM12.8 45.6001C12.8 46.8801 13.92 48.0001 15.2 48.0001C16.48 48.0001 17.6 46.8801 17.6 45.6001C17.6 44.3201 16.48 43.2001 15.2 43.2001C13.92 43.2001 12.8 44.3201 12.8 45.6001ZM48.8 33.6001C40.48 33.6001 33.6 40.4801 33.6 48.8001C33.6 57.1201 40.48 64.0001 48.8 64.0001C57.12 64.0001 64 57.1201 64 48.8001C64 40.4801 57.12 33.6001 48.8 33.6001ZM42.56 59.0401V57.4401C42.56 56.8001 42.88 56.1601 43.36 55.8401C43.52 55.6801 43.84 55.5201 44.32 55.5201H53.28C53.76 55.5201 54.08 55.6801 54.24 55.8401C54.72 56.1601 55.04 56.8001 55.04 57.4401V59.0401C53.28 60.1601 51.04 60.8001 48.8 60.8001C46.56 60.8001 44.32 60.1601 42.56 59.0401ZM58.08 56.3201C57.76 55.2001 57.12 54.0801 56.16 53.2801C55.36 52.6401 54.24 52.3201 53.28 52.3201H44.32C43.2 52.3201 42.24 52.6401 41.44 53.2801C40.48 54.0801 39.84 55.0401 39.52 56.3201C37.92 54.2401 36.8 51.6801 36.8 48.8001C36.8 42.2401 42.24 36.8001 48.8 36.8001C55.36 36.8001 60.8 42.2401 60.8 48.8001C60.8 51.6801 59.84 54.2401 58.08 56.3201ZM43.2 45.6001C43.2 42.5601 45.76 40.0001 48.8 40.0001C51.84 40.0001 54.4 42.5601 54.4 45.6001C54.4 48.6401 51.84 51.2001 48.8 51.2001C45.76 51.2001 43.2 48.6401 43.2 45.6001ZM46.4 45.6001C46.4 46.8801 47.52 48.0001 48.8 48.0001C50.08 48.0001 51.2 46.8801 51.2 45.6001C51.2 44.3201 50.08 43.2001 48.8 43.2001C47.52 43.2001 46.4 44.3201 46.4 45.6001ZM9.6 14.4H11.2C12.16 14.4 12.8 13.76 12.8 12.8C12.8 11.84 12.16 11.2 11.2 11.2H9.6C6.88 11.2 4.8 13.28 4.8 16V26.72L4.48 26.24C4 25.44 3.04 25.28 2.24 25.76C1.44 26.24 1.28 27.2 1.76 28L4.96 32.8C5.44 33.28 5.92 33.6 6.4 33.6C6.88 33.6 7.36 33.28 7.68 32.96L10.88 28.16C11.36 27.36 11.2 26.4 10.4 25.92C9.6 25.44 8.64 25.6 8.16 26.4L8 26.72V16C8 15.04 8.64 14.4 9.6 14.4ZM53.44 25.76C54.24 25.28 55.2 25.44 55.68 26.24L56 26.72V16C56 15.04 55.36 14.4 54.4 14.4H52.8C51.84 14.4 51.2 13.76 51.2 12.8C51.2 11.84 51.84 11.2 52.8 11.2H54.4C57.12 11.2 59.2 13.28 59.2 16V26.24C59.68 25.44 60.64 25.28 61.44 25.76C62.24 26.24 62.4 27.2 61.92 28L58.72 32.8C58.4 33.1201 57.92 33.4401 57.44 33.4401C56.96 33.4401 56.48 33.2801 56.16 32.8L52.96 28C52.48 27.2 52.64 26.24 53.44 25.76Z" fill="#62D7CB"/>
</svg>
