<svg width="64" height="64" viewBox="0 0 64 64" fill="none" xmlns="http://www.w3.org/2000/svg">
<path d="M27.3332 12.8002C27.3332 8.66683 23.9999 5.3335 19.8666 5.3335C15.7332 5.3335 12.3999 8.66683 12.3999 12.8002C12.3999 16.9335 15.7332 20.2668 19.8666 20.2668C23.9999 20.2668 27.3332 16.9335 27.3332 12.8002ZM19.8666 17.6002C17.1999 17.6002 15.0666 15.4668 15.0666 12.8002C15.0666 10.1335 17.3332 8.00016 19.8666 8.00016C22.3999 8.00016 24.6666 10.1335 24.6666 12.8002C24.6666 15.4668 22.5332 17.6002 19.8666 17.6002Z" fill="#62D7CB"/>
<path d="M13.7334 57.3333C14.5334 58.1333 15.6 58.6666 16.8 58.6666C16.8 58.6666 16.8 58.6666 16.9334 58.6666C18.1334 58.6666 19.2 58.1333 20 57.3333C20.8 58.1333 21.8667 58.5333 23.0667 58.5333C25.4667 58.5333 27.4667 56.5333 27.4667 54.1333V49.0666C27.4667 48.2666 26.9334 47.7333 26.1334 47.7333C25.3334 47.7333 24.8 48.2666 24.8 49.0666V54.1333C24.8 55.0666 24 55.8666 23.0667 55.8666C22.1334 55.8666 21.3334 55.0666 21.3334 54.1333V42.6666C21.3334 41.8666 20.8 41.3333 20 41.3333C19.2 41.3333 18.6667 41.8666 18.6667 42.6666V54.2666C18.6667 55.1999 17.8667 55.9999 16.9334 55.9999C16.5334 55.9999 16 55.8666 15.7334 55.4666C15.3334 55.0666 15.2 54.6666 15.2 54.2666V38.1333V31.1999C15.2 30.3999 14.6667 29.8666 13.8667 29.8666C13.0667 29.8666 12.5334 30.3999 12.5334 31.1999V38.1333C12.5334 38.6666 12.1334 39.0666 11.6 39.0666C11.0667 39.0666 10.6667 38.6666 10.6667 38.1333V28.1333C10.6667 26.2666 12.1334 24.9333 13.8667 24.9333H21.3334C22.1334 24.9333 22.6667 24.3999 22.6667 23.5999C22.6667 22.7999 22.1334 22.2666 21.3334 22.2666H13.7334C10.4 22.2666 7.8667 24.9333 7.8667 28.1333V38.1333C7.8667 40.1333 9.4667 41.7333 11.4667 41.7333C11.8667 41.7333 12.1334 41.7333 12.4 41.5999V54.2666C12.4 55.4666 12.9334 56.5333 13.7334 57.3333Z" fill="#62D7CB"/>
<path d="M57.2 19.7335C55.3333 19.8668 53.3333 19.8668 51.4667 19.7335C48.1333 19.3335 44.9333 18.4002 41.8667 16.9335C41.4667 16.8002 41.0667 16.8002 40.6667 16.9335C37.6 18.5335 34.4 19.4668 31.2 19.7335C29.3333 19.8668 27.3333 19.8668 25.4667 19.7335C25.0667 19.7335 24.6667 19.8668 24.4 20.1335C24.1333 20.4002 24 20.8002 24 21.0668V34.4002C24 39.2002 25.4667 43.6002 28.2667 47.4668C30 49.7335 32 51.7335 34.5333 53.3335L38.5333 55.8668C39.3333 56.4002 40.4 56.6668 41.3333 56.6668C42.2667 56.6668 43.3333 56.4002 44.1333 55.8668L48.1333 53.3335C54.6667 49.2002 58.6667 42.1335 58.6667 34.4002V21.0668C58.6667 20.6668 58.5333 20.2668 58.2667 20.1335C58 19.7335 57.6 19.6002 57.2 19.7335ZM56 34.4002C56 41.2002 52.5333 47.4668 46.8 51.0668L42.8 53.6002C42 54.1335 40.8 54.1335 40 53.6002L36 51.0668C33.8667 49.7335 32 48.0002 30.5333 45.8668C28 42.5335 26.6667 38.5335 26.6667 34.4002V22.5335C28.2667 22.6668 29.8667 22.5335 31.4667 22.4002C34.9333 22.0002 38.1333 21.0668 41.3333 19.6002C44.4 21.0668 47.7333 22.1335 51.2 22.4002C52.8 22.5335 54.4 22.6668 56 22.5335V34.4002Z" fill="#62D7CB"/>
<path d="M52.1333 24.6669C50.8 24.8002 49.6 24.8002 48.2667 24.6669C46 24.4002 43.8667 23.7335 41.8667 22.8002C41.4667 22.6669 41.0667 22.6669 40.6667 22.8002C38.6667 23.8669 36.5333 24.5335 34.2667 24.6669C33.0667 24.8002 31.7333 24.8002 30.4 24.6669C30 24.6669 29.6 24.8002 29.3333 25.0669C29.0667 25.3335 28.9333 25.7335 28.9333 26.0002V35.2002C28.9333 38.5335 30 41.7335 31.8667 44.4002C33.0667 46.0002 34.5333 47.4669 36.2667 48.5335L38.4 49.8669C39.2 50.4002 40.2667 50.6669 41.2 50.6669C42.1333 50.6669 43.2 50.4002 44 49.8669L46.1333 48.5335C50.8 45.6002 53.4667 40.6669 53.4667 35.2002V26.0002C53.4667 25.6002 53.3333 25.2002 53.0667 25.0669C52.8 24.9335 52.5333 24.6669 52.1333 24.6669ZM50.9333 35.2002C50.9333 39.7335 48.6667 43.8669 44.8 46.2669L42.6667 47.6002C41.8667 48.1335 40.6667 48.1335 39.8667 47.6002L37.7333 46.2669C36.2667 45.3335 35.0667 44.2669 34.1333 42.8002C32.5333 40.5335 31.6 37.8669 31.6 35.2002V27.4669C32.5333 27.4669 33.6 27.4669 34.5333 27.3335C36.8 27.0669 39.0667 26.4002 41.2 25.4669C43.3333 26.5335 45.6 27.0669 47.8667 27.3335C48.8 27.4669 49.7333 27.4669 50.8 27.4669V35.2002H50.9333Z" fill="#62D7CB"/>
<path d="M46.6667 30.3999L40 38.1332L37.0667 35.1999C36.5334 34.6666 35.7334 34.6666 35.2 35.1999C34.6667 35.7332 34.6667 36.5332 35.2 37.0666L39.2 41.0666C39.4667 41.3332 39.7334 41.4666 40.1334 41.4666C40.5334 41.4666 40.8 41.3332 41.0667 41.0666L48.6667 32.2666C49.2001 31.7332 49.0667 30.9332 48.5334 30.3999C48.0001 29.7332 47.0667 29.7332 46.6667 30.3999Z" fill="#62D7CB"/>
</svg>
